<svg width="424" height="150" viewBox="0 0 424 150" fill="none" xmlns="http://www.w3.org/2000/svg">
<path d="M159.64 71.3413C158.1 69.2013 155.06 68.3113 152.67 67.5113C149.98 66.6113 147.2 65.9913 144.42 65.4613C138.89 64.4213 133.3 63.6313 127.73 62.8113C127.99 57.1313 127.7 51.4213 126.8 45.7813C125.54 37.8913 123.15 30.1313 119.66 22.9313C116.41 16.2313 111.79 10.1013 105.38 6.15128C93.45 -1.20872 77.81 -0.718719 65.23 4.65128C58.42 7.56128 52.38 12.2913 49.07 19.0513C45.51 26.3313 44.69 34.7013 44.04 42.6713C43.4 50.5813 43.6 58.4513 43.62 66.3713C43.63 71.5713 43.51 76.8813 42.52 82.0113C42.46 82.2113 42.41 82.4113 42.39 82.6213C42.39 82.6413 42.39 82.6513 42.39 82.6713C42.1 84.0613 41.76 85.4413 41.32 86.8013C41.32 86.8113 41.31 86.8313 41.31 86.8413C39.75 90.8913 36.84 94.4813 33.25 96.8013C30.47 98.5913 27.02 99.1813 24.5 101.361C21.99 103.531 21.26 107.911 23.85 110.311C25.59 111.921 28.11 111.751 30.32 111.831C31.64 111.881 32.97 111.921 34.29 111.971C33.32 113.791 31.66 115.331 30.04 116.441C27.05 118.511 23.62 119.771 20.35 121.301C17.04 122.851 13.31 124.791 11.27 127.951C10.25 129.531 9.7 131.601 10.34 133.421C11.11 135.611 13.09 136.751 15.32 136.971C17.2 137.151 19.17 136.771 21.04 136.521C23.12 136.241 25.19 135.891 27.23 135.411C31.13 134.491 34.95 133.221 38.64 131.671C40.54 130.871 42.39 130.001 44.22 129.041C44.38 128.961 44.66 128.821 44.87 128.711C44.88 128.871 44.9 129.091 44.89 129.171C44.89 129.261 44.86 129.441 44.77 129.711C44.77 129.681 44.56 130.161 44.51 130.241C44.16 130.871 43.86 131.271 43.43 131.731C42.47 132.771 41.56 133.411 40.33 134.131C37.71 135.671 34.84 136.761 32.2 138.261C30.78 139.071 29.24 139.941 28.17 141.201C26.68 142.961 26.39 145.411 27.83 147.291C30.29 150.511 35.51 150.121 39.09 149.771C43.47 149.341 47.73 148.261 51.91 146.901C67.19 141.941 82.59 136.131 95.31 126.081C106.4 117.311 115.33 105.651 120.88 92.6513C121.65 90.8413 122.37 89.0013 123.01 87.1413C132.76 87.5113 142.68 85.8413 151.76 82.3413C154.28 81.3713 157.22 80.4613 159.02 78.3213C160.67 76.3513 161.19 73.5213 159.63 71.3413H159.64Z" fill="#FBE6EA"/>
<path d="M115.76 75.8113C114.03 73.7613 111.36 72.8613 108.87 72.1113C106.1 71.2913 103.29 70.6413 100.44 70.1413C93.88 69.0113 87.36 68.7613 80.74 69.5013C79.71 69.6213 79.65 71.1713 80.74 71.1613C85.9 71.0913 91.14 71.4413 96.24 72.2613C98.78 72.6613 101.29 73.2013 103.78 73.8513C106.14 74.4713 108.65 75.0813 110.86 76.1513C112.55 76.9713 114.83 78.7813 114.01 80.9513C113.33 82.7513 110.96 83.6313 109.32 84.2713C104.8 86.0313 99.94 86.9813 95.13 87.4713C92.44 87.7413 89.75 87.8513 87.05 88.0013C85.7 88.0813 84.35 88.1313 83 88.1913C81.55 88.2513 80.09 88.2213 78.78 88.9013C77.97 89.3213 77.96 90.6413 78.78 91.0613C79.98 91.6713 81.23 91.6813 82.55 91.7413C84.05 91.8013 85.55 91.8013 87.05 91.8113C89.9 91.8213 92.74 91.6413 95.57 91.3413C101.1 90.7513 106.46 89.5513 111.53 87.2513C113.64 86.2913 115.84 84.9713 116.9 82.8113C118.05 80.4413 117.4 77.7713 115.75 75.8213L115.76 75.8113Z" fill="#C4C7CE"/>
<path d="M86.89 28.1713C73.74 29.4013 81.09 49.4813 88.01 53.8313C91.75 56.1813 96.56 55.6413 98.75 52.3613C105.46 44.6713 97.28 27.1913 86.89 28.1613V28.1713Z" fill="#262626"/>
<path d="M117.99 35.3813C117.61 34.4113 117.16 33.4813 116.62 32.6213C116.61 32.6013 116.6 32.5813 116.59 32.5613C114.64 29.1313 110.65 23.7713 106.08 26.2413C101.61 28.6613 102.62 35.7313 103.92 39.6313C105.27 43.6713 107.45 50.2713 112.59 50.4313C117.03 50.5713 119.14 46.8013 119.4 43.0113C119.75 40.5313 119.02 37.7813 117.99 35.3713V35.3813Z" fill="#262626"/>
<path d="M112.63 57.5713C112.4 56.7513 111.98 55.9513 111.39 55.3413C110.73 54.6613 110.08 54.3513 109.21 54.0113C108.03 53.5513 106.43 54.0813 105.6 54.9613C104.25 56.3913 103.73 58.4213 104.3 60.3213C104.57 61.2213 105.07 62.0813 105.73 62.7513C106.87 63.8913 108.41 64.3213 109.98 63.9613C111.21 63.6813 112.22 62.5913 112.55 61.3913C112.68 60.9313 112.7 60.4813 112.65 60.0613C112.86 59.2613 112.87 58.4113 112.63 57.5713Z" fill="#262626"/>
<g style="mix-blend-mode:soft-light">
<path d="M86.89 28.1713C86.4 28.2213 85.95 28.2913 85.52 28.3913C94.4 30.5113 100.48 45.4313 94.42 52.3713C93.53 53.7013 92.2 54.5713 90.69 54.9913C93.8 55.7913 97.05 54.9013 98.74 52.3713C105.45 44.6813 97.27 27.2013 86.88 28.1713H86.89Z" fill="black"/>
</g>
<g style="mix-blend-mode:soft-light">
<path d="M117.99 35.3812C117.61 34.4112 117.16 33.4812 116.62 32.6212C116.61 32.6012 116.6 32.5812 116.59 32.5612C114.67 29.1912 110.78 23.9813 106.32 26.1413C108.89 27.3313 111.01 30.3412 112.27 32.5612C112.28 32.5812 112.29 32.6012 112.3 32.6212C112.84 33.4812 113.29 34.4112 113.67 35.3812C114.7 37.7912 115.43 40.5412 115.08 43.0212C114.87 46.0412 113.5 49.0312 110.71 50.0612C111.29 50.2812 111.91 50.4212 112.59 50.4412C117.03 50.5812 119.14 46.8112 119.4 43.0212C119.75 40.5412 119.02 37.7912 117.99 35.3812Z" fill="black"/>
</g>
<g style="mix-blend-mode:soft-light">
<path d="M112.63 57.5713C112.4 56.7513 111.98 55.9513 111.39 55.3413C110.73 54.6613 110.08 54.3513 109.21 54.0113C108.23 53.6313 106.96 53.9413 106.08 54.5613C106.42 54.7613 106.74 55.0013 107.07 55.3413C107.66 55.9513 108.09 56.7613 108.31 57.5713C108.54 58.4113 108.53 59.2613 108.33 60.0613C108.38 60.4913 108.35 60.9313 108.23 61.3913C108 62.2213 107.44 63.0013 106.7 63.4913C107.68 64.0513 108.82 64.2313 109.98 63.9613C111.21 63.6813 112.22 62.5913 112.55 61.3913C112.68 60.9313 112.7 60.4813 112.65 60.0613C112.86 59.2613 112.87 58.4113 112.63 57.5713Z" fill="black"/>
</g>
<path d="M94.82 19.2213C92.93 17.8413 90.34 17.1913 88.03 16.9513C85.63 16.7013 83.61 17.3413 81.34 17.9813C78.37 18.8213 78.81 23.9113 82.1 23.5713C85.19 23.2513 88.2 24.6613 90.93 25.8813C95.46 27.9013 98.86 22.1713 94.82 19.2313V19.2213Z" fill="#C4C7CE"/>
<path d="M105.3 12.2213C103.31 12.6713 101.37 13.6413 100.1 15.2713C98.49 17.3413 97.61 20.0613 98.85 22.5313C100.07 24.9513 103.88 24.8513 105.12 22.5313C105.41 21.9913 105.63 21.4713 105.71 20.8613C105.72 20.7613 105.79 20.2913 105.81 20.1313C105.85 19.9213 105.88 19.7113 105.94 19.5013C105.96 19.4113 106.11 19.0213 106.1 19.0313C106.27 18.6413 106.46 18.2413 106.7 17.8813C106.77 17.7713 107.1 17.4513 107.44 17.2713C110.27 15.7313 108.29 11.5513 105.31 12.2213H105.3Z" fill="#C4C7CE"/>
<path d="M159.03 78.3213C160.11 77.0313 160.69 75.3713 160.54 73.7613C158.82 74.4913 157.08 75.1813 155.3 75.7813C151.13 77.1713 146.82 78.1813 142.45 78.7213C138.73 79.1913 134.95 79.1513 131.25 79.7613C127.87 80.3213 124.56 81.5913 122.35 84.3213C121.16 85.8013 120.3 87.4913 119.37 89.1313C118.48 90.6913 117.55 92.2413 116.59 93.7513C108.88 105.891 98.78 116.501 87.13 124.921C75.3 133.471 61.74 139.941 47.49 143.251C43.22 144.241 38.84 144.891 34.45 144.851C32.31 144.831 30.16 144.651 28.06 144.261C27.69 144.191 27.32 144.111 26.95 144.021C26.82 145.151 27.09 146.301 27.85 147.291C30.31 150.511 35.53 150.121 39.11 149.771C43.49 149.341 47.75 148.261 51.93 146.901C67.21 141.941 82.61 136.131 95.33 126.081C106.42 117.311 115.35 105.651 120.9 92.6513C121.67 90.8413 122.39 89.0013 123.03 87.1413C132.78 87.5113 142.7 85.8413 151.78 82.3413C154.3 81.3713 157.24 80.4613 159.04 78.3213H159.03Z" fill="#C4C7CE"/>
<path d="M15.33 136.971C17.21 137.151 19.18 136.771 21.05 136.521C23.13 136.241 25.2 135.891 27.24 135.411C31.14 134.491 34.96 133.221 38.65 131.671C40.55 130.871 42.4 130.001 44.23 129.041C44.39 128.961 44.67 128.821 44.88 128.711C44.88 128.841 44.9 129.001 44.9 129.091C45.6 127.521 45.51 125.661 43.84 124.621C43.69 124.521 43.47 124.521 43.31 124.621C38.26 127.711 32.7 129.921 26.89 131.131C23.97 131.731 20.96 132.131 17.98 132.171C16.82 132.181 15.5 132.101 14.52 131.401C13.16 130.431 13.28 128.641 13.56 127.181C13.71 126.381 13.93 125.611 14.2 124.851C13.06 125.741 12.04 126.761 11.27 127.961C10.25 129.541 9.7 131.611 10.34 133.431C11.11 135.621 13.09 136.761 15.32 136.981L15.33 136.971Z" fill="#C4C7CE"/>
<path d="M22.32 105.381C22.03 107.161 22.46 109.031 23.85 110.311C25.59 111.921 28.11 111.751 30.32 111.831C31.61 111.871 32.9 111.921 34.19 111.961C35.45 110.931 36.6 109.771 37.64 108.581C38.38 107.741 39.23 106.841 39.79 105.871C40.27 105.041 40.09 104.121 39.36 103.511C37.54 102.001 35.49 103.841 33.85 104.671C30.33 106.461 26.05 106.661 22.31 105.361L22.32 105.381Z" fill="#C4C7CE"/>
<path d="M5.1 130.841C5.06 130.701 4.99 130.581 4.89 130.481C4.77 130.301 4.62 130.161 4.43 130.061C4.3 130.001 4.17 129.951 4.04 129.891C3.75 129.811 3.46 129.811 3.17 129.891C2.97 129.931 2.77 129.981 2.58 130.011C2.49 130.021 2.4 130.031 2.31 130.051C2.28 130.051 2.25 130.051 2.22 130.061C2.05 130.081 1.84 130.091 1.67 130.131C1.57 130.141 1.48 130.181 1.4 130.231C1.24 130.281 1.1 130.361 0.98 130.481C0.9 130.541 0.81 130.611 0.73 130.671C0.68 130.711 0.64 130.741 0.59 130.781C0.32 130.991 0.169999 131.321 0.0599995 131.641L0 132.111C0 132.351 0.0399996 132.581 0.15 132.791C0.19 132.941 0.269999 133.071 0.379999 133.181C0.509999 133.371 0.669999 133.531 0.879999 133.641C1.21 133.851 1.58 133.901 1.96 133.901C2.36 133.901 2.75 133.841 3.11 133.641C3.25 133.561 3.39 133.471 3.53 133.381C3.67 133.291 3.81 133.201 3.96 133.121C4.12 133.041 4.28 132.961 4.44 132.881C4.63 132.781 4.78 132.641 4.9 132.461C5.04 132.301 5.14 132.121 5.19 131.901L5.25 131.461C5.25 131.231 5.21 131.021 5.11 130.831L5.1 130.841Z" fill="#C4C7CE"/>
<path d="M22.62 144.391C22.42 143.871 22.18 143.451 21.73 143.101C21.33 142.791 20.94 142.681 20.47 142.601C20.07 142.421 19.64 142.321 19.2 142.321C18.12 142.321 17.11 142.801 16.44 143.661C15.64 144.701 15.51 146.161 16.2 147.311C16.84 148.381 17.98 149.101 19.24 149.121C20.44 149.141 21.68 148.481 22.28 147.421C22.78 146.541 23 145.361 22.63 144.391H22.62Z" fill="#C4C7CE"/>
<path d="M13.87 142.481C13.75 142.301 13.61 142.101 13.44 141.961C13.33 141.871 13.21 141.781 13.1 141.701C12.97 141.531 12.81 141.371 12.61 141.271C12.25 141.081 11.95 141.011 11.55 140.981C11.43 140.981 11.3 141.001 11.18 141.011C11.05 141.031 10.92 141.041 10.8 141.081C10.56 141.161 10.31 141.261 10.11 141.411C9.97 141.511 9.81 141.631 9.68 141.761C9.54 141.901 9.42 142.071 9.31 142.231C9.28 142.281 9.25 142.331 9.22 142.381C9.15 142.531 9.04 142.751 9 142.941C8.96 143.131 8.92 143.321 8.93 143.521C8.94 143.691 8.97 143.861 9 144.021C9 144.061 9.02 144.101 9.03 144.131C9.16 144.521 9.32 144.821 9.61 145.111C9.85 145.361 10.09 145.491 10.39 145.621C10.5 145.671 10.61 145.721 10.73 145.751C10.93 145.801 11.13 145.821 11.33 145.831C11.59 145.851 11.85 145.801 12.1 145.751C12.35 145.701 12.59 145.591 12.82 145.471C12.99 145.381 13.16 145.231 13.29 145.121C13.33 145.081 13.38 145.051 13.41 145.011C13.69 144.691 13.9 144.371 14.01 143.961C14.14 143.481 14.14 142.911 13.85 142.481H13.87Z" fill="#C4C7CE"/>
<path d="M22.3 113.701C22.3 113.521 22.27 113.281 22.24 113.151C22.11 112.691 21.8 112.341 21.4 112.101C21.19 111.981 20.96 111.881 20.72 111.811C20.49 111.741 20.22 111.721 19.99 111.691C19.88 111.681 19.78 111.681 19.67 111.691C19.43 111.711 19.17 111.741 18.92 111.801C18.67 111.871 18.43 111.981 18.2 112.091C17.98 112.201 17.79 112.371 17.61 112.541C17.43 112.721 17.27 112.931 17.14 113.151C17.01 113.361 16.92 113.601 16.84 113.841C16.82 113.891 16.81 113.951 16.8 114.001C16.76 114.211 16.72 114.431 16.72 114.641C16.72 115.171 16.87 115.701 17.14 116.161C17.17 116.211 17.2 116.251 17.23 116.301C17.35 116.461 17.47 116.631 17.6 116.771C17.78 116.971 18 117.121 18.22 117.271C18.42 117.411 18.71 117.511 18.92 117.591C18.97 117.611 19.02 117.621 19.07 117.641C19.28 117.681 19.5 117.711 19.71 117.731C20.19 117.761 20.78 117.601 21.18 117.341C21.38 117.211 21.59 117.061 21.75 116.871C22.08 116.471 22.17 116.311 22.36 115.821C22.39 115.731 22.42 115.651 22.43 115.561C22.47 115.341 22.53 115.041 22.51 114.791C22.49 114.421 22.43 114.041 22.28 113.701H22.3Z" fill="#C4C7CE"/>
<path d="M60.31 19.9312C61.21 18.4412 60.64 16.3912 59.15 15.5212C57.54 14.5812 55.75 15.2512 54.74 16.6812C50.31 22.9612 48.22 30.2513 47.29 37.8013C46.8 41.7713 46.69 45.7812 46.78 49.7812C46.82 51.7412 46.94 53.6912 47.06 55.6512C47.21 57.8812 47.16 60.3013 47.8 62.4513C48.24 63.9413 49.62 65.0312 51.19 65.0312C52.59 65.0312 54.38 63.9513 54.58 62.4513C54.87 60.3213 54.63 58.2813 54.5 56.1413C54.38 54.1913 54.28 52.2312 54.21 50.2712C54.06 46.4012 54.08 42.5213 54.45 38.6613C55.04 32.4413 56.92 25.5312 60.32 19.9312H60.31Z" fill="#E8E8E8"/>
<path d="M49.93 69.7712C46.74 69.7712 46.73 74.7313 49.93 74.7313C53.13 74.7313 53.13 69.7712 49.93 69.7712Z" fill="#E8E8E8"/>
<path d="M60.94 112.861C60.48 113.261 59.98 113.621 59.56 114.051C59.11 114.521 58.72 115.021 58.29 115.511C57.46 116.461 56.56 117.351 55.61 118.181C55.09 118.631 54.83 118.841 54.38 119.171C53.88 119.531 53.37 119.881 52.85 120.211C51.76 120.901 50.61 121.501 49.43 122.021C48.67 122.351 48.44 123.431 48.74 124.121C49.04 124.811 49.94 125.421 50.72 125.091C53.38 124.001 55.81 122.561 58.05 120.751C59.08 119.911 60.04 119.001 60.93 118.021C61.45 117.451 61.95 116.861 62.35 116.201C62.72 115.571 62.94 114.851 63.17 114.151C63.61 112.801 61.89 112.041 60.95 112.861H60.94Z" fill="#DBDBDB"/>
<path d="M52.75 98.2112C52.45 97.8312 51.82 97.6312 51.39 97.9412C50.87 98.3212 50.36 98.6812 49.89 99.1212C49.47 99.5212 49.05 99.9112 48.63 100.311C47.79 101.101 46.95 101.901 46.12 102.691C45.68 103.111 45.67 103.911 46.12 104.321C46.6 104.761 47.28 104.761 47.75 104.321C48.59 103.551 49.42 102.781 50.26 102.011L51.5 100.871C51.71 100.681 51.92 100.501 52.1 100.281C52.29 100.051 52.48 99.8212 52.67 99.5912C53.01 99.1812 53.09 98.6512 52.75 98.2112Z" fill="#DBDBDB"/>
<path d="M169.781 57.982H171.797V69.31H169.781V57.982ZM173.563 67.534L177.675 63.198V63.166H173.755V61.63H179.995V63.374L175.835 67.774H180.187V69.31H173.563V67.534ZM180.929 63.262V61.63H182.513V59.406H184.433V61.63H186.545V63.262H184.433V66.622C184.433 67.006 184.503 67.31 184.641 67.534C184.791 67.758 185.079 67.87 185.505 67.87C185.676 67.87 185.863 67.854 186.065 67.822C186.268 67.7793 186.428 67.7153 186.545 67.63V69.246C186.343 69.342 186.092 69.406 185.793 69.438C185.505 69.4807 185.249 69.502 185.025 69.502C184.513 69.502 184.092 69.4433 183.761 69.326C183.441 69.2193 183.185 69.054 182.993 68.83C182.812 68.5953 182.684 68.3073 182.609 67.966C182.545 67.6247 182.513 67.23 182.513 66.782V63.262H180.929ZM189.58 66.142C189.644 66.718 189.868 67.166 190.252 67.486C190.636 67.806 191.1 67.966 191.644 67.966C192.124 67.966 192.524 67.87 192.844 67.678C193.175 67.4753 193.463 67.2247 193.708 66.926L195.084 67.966C194.636 68.5207 194.135 68.9153 193.58 69.15C193.025 69.3847 192.444 69.502 191.836 69.502C191.26 69.502 190.716 69.406 190.204 69.214C189.692 69.022 189.249 68.75 188.876 68.398C188.503 68.046 188.204 67.6247 187.98 67.134C187.767 66.6327 187.66 66.078 187.66 65.47C187.66 64.862 187.767 64.3127 187.98 63.822C188.204 63.3207 188.503 62.894 188.876 62.542C189.249 62.19 189.692 61.918 190.204 61.726C190.716 61.534 191.26 61.438 191.836 61.438C192.369 61.438 192.855 61.534 193.292 61.726C193.74 61.9073 194.119 62.174 194.428 62.526C194.748 62.878 194.993 63.3153 195.164 63.838C195.345 64.35 195.436 64.942 195.436 65.614V66.142H189.58ZM193.516 64.702C193.505 64.126 193.329 63.678 192.988 63.358C192.647 63.038 192.172 62.878 191.564 62.878C190.988 62.878 190.529 63.0433 190.188 63.374C189.857 63.7047 189.655 64.1473 189.58 64.702H193.516ZM202.48 63.934C202.256 63.6993 202.021 63.5127 201.776 63.374C201.53 63.2353 201.28 63.166 201.024 63.166C200.672 63.166 200.357 63.23 200.08 63.358C199.802 63.486 199.562 63.6567 199.36 63.87C199.168 64.0833 199.018 64.3287 198.912 64.606C198.816 64.8833 198.768 65.1713 198.768 65.47C198.768 65.7687 198.816 66.0567 198.912 66.334C199.018 66.6113 199.168 66.8567 199.36 67.07C199.562 67.2833 199.802 67.454 200.08 67.582C200.357 67.71 200.672 67.774 201.024 67.774C201.632 67.774 202.128 67.534 202.512 67.054L203.792 68.43C203.6 68.622 203.376 68.7873 203.12 68.926C202.874 69.0647 202.624 69.1767 202.368 69.262C202.112 69.3473 201.866 69.406 201.632 69.438C201.397 69.4807 201.194 69.502 201.024 69.502C200.448 69.502 199.904 69.406 199.392 69.214C198.88 69.022 198.437 68.75 198.064 68.398C197.69 68.046 197.392 67.6247 197.168 67.134C196.954 66.6327 196.848 66.078 196.848 65.47C196.848 64.862 196.954 64.3127 197.168 63.822C197.392 63.3207 197.69 62.894 198.064 62.542C198.437 62.19 198.88 61.918 199.392 61.726C199.904 61.534 200.448 61.438 201.024 61.438C201.514 61.438 202.005 61.534 202.496 61.726C202.997 61.9073 203.434 62.2007 203.808 62.606L202.48 63.934ZM206.87 62.702H206.902C207.052 62.382 207.313 62.094 207.686 61.838C208.06 61.5713 208.55 61.438 209.158 61.438C209.67 61.438 210.102 61.5233 210.454 61.694C210.817 61.8647 211.11 62.0887 211.334 62.366C211.558 62.6433 211.718 62.9633 211.814 63.326C211.91 63.6887 211.958 64.0673 211.958 64.462V69.31H210.038V65.422C210.038 65.2087 210.028 64.974 210.006 64.718C209.985 64.4513 209.926 64.206 209.83 63.982C209.745 63.7473 209.606 63.5553 209.414 63.406C209.222 63.246 208.961 63.166 208.63 63.166C208.31 63.166 208.038 63.2193 207.814 63.326C207.601 63.4327 207.42 63.5767 207.27 63.758C207.132 63.9393 207.03 64.1473 206.966 64.382C206.902 64.6167 206.87 64.862 206.87 65.118V69.31H204.95V57.214H206.87V62.702ZM217.002 57.982H219.322L222.41 66.542L225.594 57.982H227.77L223.194 69.31H221.45L217.002 57.982ZM232.735 68.254H232.687C232.409 68.702 232.057 69.022 231.631 69.214C231.204 69.406 230.735 69.502 230.223 69.502C229.871 69.502 229.524 69.454 229.183 69.358C228.852 69.262 228.553 69.118 228.287 68.926C228.031 68.734 227.823 68.494 227.663 68.206C227.503 67.918 227.423 67.582 227.423 67.198C227.423 66.782 227.497 66.43 227.647 66.142C227.796 65.8433 227.993 65.598 228.239 65.406C228.495 65.2033 228.788 65.0433 229.119 64.926C229.449 64.8087 229.791 64.7233 230.143 64.67C230.505 64.606 230.868 64.5687 231.231 64.558C231.593 64.5367 231.935 64.526 232.255 64.526H232.735V64.318C232.735 63.838 232.569 63.4807 232.239 63.246C231.908 63.0007 231.487 62.878 230.975 62.878C230.569 62.878 230.191 62.9527 229.839 63.102C229.487 63.2407 229.183 63.4327 228.927 63.678L227.919 62.67C228.345 62.222 228.841 61.9073 229.407 61.726C229.983 61.534 230.575 61.438 231.183 61.438C231.727 61.438 232.185 61.502 232.559 61.63C232.932 61.7473 233.241 61.902 233.487 62.094C233.732 62.286 233.919 62.51 234.047 62.766C234.185 63.0113 234.281 63.262 234.335 63.518C234.399 63.774 234.436 64.0247 234.447 64.27C234.457 64.5047 234.463 64.7127 234.463 64.894V69.31H232.735V68.254ZM232.623 65.87H232.223C231.956 65.87 231.657 65.8807 231.327 65.902C230.996 65.9233 230.681 65.9767 230.383 66.062C230.095 66.1367 229.849 66.254 229.647 66.414C229.444 66.574 229.343 66.7873 229.343 67.054C229.343 67.2353 229.38 67.39 229.455 67.518C229.54 67.6353 229.647 67.7367 229.775 67.822C229.903 67.9073 230.047 67.9713 230.207 68.014C230.367 68.046 230.527 68.062 230.687 68.062C231.359 68.062 231.849 67.9073 232.159 67.598C232.468 67.278 232.623 66.846 232.623 66.302V65.87ZM236.56 57.214H238.48V69.31H236.56V57.214ZM240.717 57.214H242.637V69.31H240.717V57.214ZM243.801 61.63H245.913L248.057 66.958H248.089L250.009 61.63H252.009L248.377 70.958C248.238 71.3207 248.084 71.6353 247.913 71.902C247.753 72.1793 247.561 72.4087 247.337 72.59C247.113 72.782 246.846 72.9207 246.537 73.006C246.238 73.102 245.876 73.15 245.449 73.15C244.948 73.15 244.457 73.086 243.977 72.958L244.217 71.23C244.366 71.2833 244.521 71.326 244.681 71.358C244.852 71.4007 245.022 71.422 245.193 71.422C245.428 71.422 245.625 71.4007 245.785 71.358C245.945 71.3153 246.078 71.246 246.185 71.15C246.292 71.0647 246.382 70.9473 246.457 70.798C246.542 70.6593 246.628 70.4887 246.713 70.286L247.081 69.374L243.801 61.63Z" fill="#FAFAFA"/>
<path opacity="0.8" d="M169.797 84.398H170.973V94.31H169.797V84.398ZM172.622 93.456L176.472 88.682H172.79V87.758H177.9V88.598L174.05 93.386H177.998V94.31H172.622V93.456ZM183.043 88.682H181.111V91.958C181.111 92.1727 181.116 92.3733 181.125 92.56C181.134 92.7373 181.172 92.896 181.237 93.036C181.302 93.1667 181.4 93.274 181.531 93.358C181.662 93.4327 181.848 93.47 182.091 93.47C182.25 93.47 182.413 93.4513 182.581 93.414C182.749 93.3767 182.908 93.3207 183.057 93.246L183.099 94.24C182.912 94.324 182.702 94.3847 182.469 94.422C182.245 94.4593 182.03 94.478 181.825 94.478C181.433 94.478 181.12 94.4267 180.887 94.324C180.654 94.2213 180.472 94.0767 180.341 93.89C180.21 93.7033 180.122 93.4747 180.075 93.204C180.038 92.924 180.019 92.616 180.019 92.28V88.682H178.591V87.758H180.019V85.896H181.111V87.758H183.043V88.682ZM190.233 93.12C189.841 93.624 189.411 93.9787 188.945 94.184C188.478 94.38 187.937 94.478 187.321 94.478C186.807 94.478 186.345 94.3893 185.935 94.212C185.524 94.0253 185.174 93.778 184.885 93.47C184.605 93.162 184.385 92.798 184.227 92.378C184.077 91.958 184.003 91.51 184.003 91.034C184.003 90.53 184.087 90.068 184.255 89.648C184.423 89.2187 184.656 88.8547 184.955 88.556C185.253 88.248 185.608 88.01 186.019 87.842C186.429 87.674 186.877 87.59 187.363 87.59C187.82 87.59 188.24 87.6693 188.623 87.828C189.005 87.9773 189.332 88.2013 189.603 88.5C189.883 88.7893 190.097 89.1487 190.247 89.578C190.396 89.998 190.471 90.4787 190.471 91.02V91.37H185.179C185.197 91.65 185.263 91.9207 185.375 92.182C185.496 92.434 185.65 92.658 185.837 92.854C186.023 93.0407 186.243 93.19 186.495 93.302C186.747 93.414 187.022 93.47 187.321 93.47C187.797 93.47 188.198 93.386 188.525 93.218C188.851 93.05 189.145 92.8027 189.407 92.476L190.233 93.12ZM189.295 90.446C189.276 89.886 189.094 89.438 188.749 89.102C188.413 88.766 187.937 88.598 187.321 88.598C186.705 88.598 186.21 88.766 185.837 89.102C185.473 89.438 185.253 89.886 185.179 90.446H189.295ZM196.822 89.396C196.589 89.116 196.337 88.9153 196.066 88.794C195.795 88.6633 195.497 88.598 195.17 88.598C194.806 88.598 194.484 88.6633 194.204 88.794C193.924 88.9153 193.691 89.088 193.504 89.312C193.327 89.536 193.191 89.7973 193.098 90.096C193.005 90.3853 192.958 90.698 192.958 91.034C192.958 91.37 193.009 91.6873 193.112 91.986C193.224 92.2753 193.373 92.532 193.56 92.756C193.756 92.98 193.989 93.1573 194.26 93.288C194.531 93.4093 194.834 93.47 195.17 93.47C195.889 93.47 196.444 93.1993 196.836 92.658L197.648 93.428C197.331 93.792 196.957 94.058 196.528 94.226C196.099 94.394 195.646 94.478 195.17 94.478C194.666 94.478 194.204 94.394 193.784 94.226C193.364 94.058 193.005 93.82 192.706 93.512C192.417 93.204 192.188 92.84 192.02 92.42C191.861 92 191.782 91.538 191.782 91.034C191.782 90.5393 191.861 90.082 192.02 89.662C192.188 89.242 192.421 88.878 192.72 88.57C193.019 88.262 193.373 88.024 193.784 87.856C194.204 87.6787 194.666 87.59 195.17 87.59C195.655 87.59 196.113 87.674 196.542 87.842C196.981 88.01 197.363 88.2713 197.69 88.626L196.822 89.396ZM198.914 83.726H200.006V88.668H200.034C200.109 88.5467 200.211 88.4207 200.342 88.29C200.473 88.1593 200.627 88.0427 200.804 87.94C200.991 87.8373 201.196 87.7533 201.42 87.688C201.644 87.6227 201.882 87.59 202.134 87.59C202.563 87.59 202.932 87.6553 203.24 87.786C203.557 87.9167 203.819 88.0987 204.024 88.332C204.229 88.5653 204.379 88.85 204.472 89.186C204.575 89.5127 204.626 89.872 204.626 90.264V94.31H203.534V90.376C203.534 89.816 203.413 89.382 203.17 89.074C202.927 88.7567 202.549 88.598 202.036 88.598C201.681 88.598 201.373 88.6587 201.112 88.78C200.86 88.9013 200.65 89.074 200.482 89.298C200.323 89.522 200.202 89.788 200.118 90.096C200.043 90.404 200.006 90.7447 200.006 91.118V94.31H198.914V83.726ZM209.168 84.398H210.498L213.55 92.546H213.578L216.728 84.398H217.974L214.096 94.31H212.962L209.168 84.398ZM218.039 88.598C218.375 88.2527 218.772 88.0007 219.229 87.842C219.696 87.674 220.167 87.59 220.643 87.59C221.623 87.59 222.323 87.8187 222.743 88.276C223.172 88.7333 223.387 89.4287 223.387 90.362V93.176C223.387 93.3627 223.396 93.5587 223.415 93.764C223.434 93.96 223.457 94.142 223.485 94.31H222.435C222.398 94.1607 222.374 93.9973 222.365 93.82C222.365 93.6333 222.365 93.47 222.365 93.33H222.337C222.122 93.666 221.833 93.9413 221.469 94.156C221.114 94.3707 220.685 94.478 220.181 94.478C219.845 94.478 219.528 94.436 219.229 94.352C218.94 94.268 218.683 94.1467 218.459 93.988C218.244 93.82 218.072 93.6147 217.941 93.372C217.81 93.1293 217.745 92.8493 217.745 92.532C217.745 91.9907 217.885 91.566 218.165 91.258C218.445 90.95 218.79 90.7213 219.201 90.572C219.621 90.4227 220.069 90.3293 220.545 90.292C221.03 90.2547 221.474 90.236 221.875 90.236H222.295V90.04C222.295 89.564 222.15 89.2047 221.861 88.962C221.581 88.7193 221.184 88.598 220.671 88.598C220.316 88.598 219.966 88.6587 219.621 88.78C219.285 88.892 218.986 89.0693 218.725 89.312L218.039 88.598ZM221.203 91.16C220.503 91.16 219.948 91.258 219.537 91.454C219.126 91.65 218.921 91.972 218.921 92.42C218.921 92.8307 219.056 93.1247 219.327 93.302C219.607 93.47 219.952 93.554 220.363 93.554C220.68 93.554 220.956 93.5027 221.189 93.4C221.432 93.288 221.632 93.1433 221.791 92.966C221.95 92.7887 222.071 92.5833 222.155 92.35C222.239 92.1073 222.286 91.8507 222.295 91.58V91.16H221.203ZM225.481 83.726H226.573V94.31H225.481V83.726ZM228.844 83.726H229.936V94.31H228.844V83.726ZM234.517 95.808C234.405 96.088 234.289 96.34 234.167 96.564C234.055 96.7973 233.915 96.9933 233.747 97.152C233.589 97.32 233.393 97.446 233.159 97.53C232.935 97.6233 232.66 97.67 232.333 97.67C232.175 97.67 232.007 97.6607 231.829 97.642C231.661 97.6233 231.503 97.5767 231.353 97.502L231.493 96.55C231.605 96.5967 231.722 96.6247 231.843 96.634C231.965 96.6527 232.105 96.662 232.263 96.662C232.618 96.662 232.879 96.564 233.047 96.368C233.215 96.172 233.36 95.9107 233.481 95.584L233.929 94.352L231.213 87.758H232.487L234.517 92.896H234.545L236.491 87.758H237.681L234.517 95.808Z" fill="#FAFAFA"/>
</svg>
