<svg width="92" height="186" viewBox="0 0 92 186" fill="none" xmlns="http://www.w3.org/2000/svg">
<g style="mix-blend-mode:soft-light">
<path d="M47.0106 185.998C71.7861 185.998 91.8706 183.535 91.8706 180.498C91.8706 177.46 71.7861 174.998 47.0106 174.998C22.2351 174.998 2.15057 177.46 2.15057 180.498C2.15057 183.535 22.2351 185.998 47.0106 185.998Z" fill="#16272B"/>
</g>
<path d="M91.4706 43.8076C91.6006 38.7576 90.9606 33.6376 89.0606 28.9476C88.4606 26.9776 87.7206 25.0376 86.7906 23.1676C80.1306 9.75759 66.2506 1.78759 51.6806 0.277586C37.8406 -1.16241 22.5006 3.03759 12.6006 13.1676C7.46057 18.4276 4.49058 24.9876 3.49058 32.2476C2.34058 40.6076 2.59058 49.2576 3.05058 57.6676C3.16058 59.7076 5.76057 72.0576 6.51057 76.2376C7.61057 82.4476 8.80059 88.8576 9.09059 95.1576C9.55059 105.318 7.43056 114.978 3.19056 123.958C3.19056 123.968 3.19056 123.988 3.19056 123.998C1.73056 127.018 0.0805646 130.098 0.130565 133.538C0.180565 136.608 1.57058 139.488 3.96058 141.408C8.72058 145.218 15.5006 145.308 20.6006 142.108C25.2306 139.198 28.2806 134.588 31.1106 129.908C31.3406 131.098 31.5206 132.308 31.6106 133.538C31.8806 137.178 31.5206 140.708 30.8706 144.278C29.6606 150.918 28.7706 159.208 34.6306 164.088C39.9606 168.538 47.3906 166.928 52.0806 162.338C57.2606 157.268 57.8506 149.688 57.6906 142.848C57.6006 138.628 57.3306 134.428 57.3906 130.198C57.4206 127.828 57.5506 125.478 57.7506 123.118C58.4506 125.408 59.1306 127.668 60.1806 129.848C62.4606 134.608 66.5506 138.808 71.9006 139.798C77.1806 140.768 82.7906 138.788 85.1206 133.678C87.5606 128.308 85.9106 122.418 84.7506 116.938C83.4306 110.698 82.4106 104.408 82.4606 98.0176C82.5206 91.9876 83.4806 86.0476 84.7406 80.1576C87.3206 68.1576 91.1406 56.1776 91.4706 43.8076Z" fill="#D90429"/>
<path d="M41.5706 93.0878C41.2006 90.1378 40.7606 87.1878 40.2506 84.2578C40.0006 82.8078 39.7306 81.3578 39.4406 79.9178C39.1606 78.4878 38.9806 76.9478 38.1706 75.7078C37.7706 75.0978 36.5506 75.0578 36.4206 75.9378C36.1106 77.9878 36.8506 80.1277 37.2306 82.1377C37.6406 84.3477 38.0206 86.5778 38.3506 88.8078C38.9806 93.0478 40.0606 97.8777 39.0806 102.128C38.3306 105.378 35.6805 108.788 31.9706 107.968C28.2006 107.138 26.2906 102.948 25.1806 99.6478C23.5906 94.9478 22.2306 90.1478 20.7406 85.4178C20.2406 83.8478 17.8406 84.4878 18.2606 86.0977C19.5606 91.0278 20.7106 96.0377 22.3106 100.878C23.6406 104.898 25.8006 108.998 29.9406 110.658C33.9206 112.258 38.0006 110.078 40.1706 106.648C42.7206 102.628 42.1406 97.5477 41.5706 93.0777V93.0878Z" fill="white"/>
<path d="M72.6406 81.4976C72.4706 80.1476 70.3306 79.5176 70.0206 81.1376C69.5406 83.6776 69.5606 86.2876 69.0406 88.8276C68.5206 91.3676 67.7706 93.8676 66.8006 96.2676C65.3206 99.9376 62.2706 106.878 57.1306 105.518C52.7606 104.368 53.5106 97.1876 53.6306 93.8776C53.8306 88.3076 54.6306 82.8076 56.0506 77.4176C56.3906 76.1176 54.4106 75.5676 54.0306 76.8576C52.6006 81.7276 51.6206 86.7476 51.2106 91.8176C50.8806 95.8076 50.4006 100.548 52.1006 104.318C53.8206 108.118 58.0106 109.338 61.7206 107.638C65.7106 105.818 67.7806 101.298 69.3606 97.4676C70.4106 94.9176 71.2306 92.2776 71.7906 89.5776C72.3206 87.0376 72.9706 84.0676 72.6406 81.4776V81.4976Z" fill="white"/>
<path d="M18.9806 146.918C17.7306 146.618 16.3606 147.028 15.4806 147.978C14.6906 148.838 14.2805 150.008 14.6005 151.168C14.7805 151.808 15.1905 152.418 15.7205 152.838C16.3405 153.458 17.2206 153.828 18.0806 153.858C19.2906 153.898 20.4506 153.258 21.0806 152.238C22.3006 150.268 21.2906 147.468 18.9806 146.918Z" fill="#D90429"/>
<path d="M11.0106 151.928C10.9406 151.618 10.8006 151.358 10.5906 151.128C10.4206 150.868 10.2006 150.668 9.93057 150.518C9.74057 150.438 9.56058 150.358 9.37057 150.278C9.12057 150.208 8.86057 150.198 8.61057 150.208C8.59057 150.208 8.56056 150.208 8.54056 150.198C8.51056 150.198 8.48057 150.198 8.46057 150.198C8.23057 150.218 8.00057 150.248 7.77057 150.288C7.74057 150.288 7.71055 150.298 7.69055 150.308C7.48055 150.388 7.26058 150.468 7.06058 150.578C7.04058 150.588 7.01057 150.608 6.99057 150.618C6.91057 150.678 6.82057 150.748 6.74057 150.818C6.65057 150.878 6.57057 150.948 6.49057 151.018C6.48057 151.028 6.46056 151.038 6.45056 151.058C6.43056 151.078 6.40055 151.108 6.38055 151.138C6.24055 151.308 6.10056 151.478 5.98056 151.658C5.97056 151.668 5.96056 151.688 5.95056 151.698C5.81056 151.928 5.70057 152.248 5.61057 152.458C5.58057 152.528 5.56056 152.588 5.54056 152.658C5.53056 152.688 5.52056 152.728 5.51056 152.768C5.48056 152.898 5.48056 152.968 5.45056 153.148C5.43056 153.298 5.41057 153.408 5.40057 153.538C5.40057 153.998 5.52058 154.428 5.75058 154.818C5.98058 155.198 6.28055 155.508 6.66055 155.728C6.68055 155.738 6.69057 155.748 6.71057 155.758C6.71057 155.758 6.73057 155.758 6.74057 155.768C6.92057 155.848 7.18057 155.958 7.36057 156.028C7.40057 156.048 7.44056 156.058 7.48056 156.058C7.60056 156.078 7.75058 156.098 7.84058 156.108C7.92058 156.118 8.08056 156.148 8.20056 156.158C8.22056 156.158 8.24056 156.158 8.26056 156.158C8.28056 156.158 8.30056 156.158 8.32056 156.158C8.44056 156.158 8.59057 156.118 8.68057 156.108C8.78057 156.098 8.93057 156.078 9.05057 156.058C9.07057 156.058 9.09057 156.058 9.11057 156.048C9.11057 156.048 9.13056 156.048 9.14056 156.048C9.34056 155.968 9.54057 155.878 9.74057 155.798C9.91057 155.668 10.0806 155.538 10.2506 155.408C10.2906 155.368 10.6206 154.938 10.6506 154.888C10.6706 154.858 10.9006 154.308 10.9106 154.278C10.9106 154.268 10.9106 154.258 10.9106 154.248C10.9106 154.248 10.9106 154.238 10.9106 154.228C10.9306 154.128 10.9906 153.678 11.0006 153.578C11.0006 153.568 11.0006 153.558 11.0006 153.548C11.0006 153.538 11.0006 153.528 11.0006 153.518C11.0006 153.478 10.9906 153.418 10.9806 153.358C11.0306 153.208 11.0706 153.048 11.0706 152.878C11.1406 152.568 11.1306 152.248 11.0306 151.938L11.0106 151.928Z" fill="#D90429"/>
<path d="M31.5606 166.348C31.5406 166.218 31.5306 166.068 31.5006 165.928C31.5006 165.898 31.4806 165.868 31.4706 165.838C31.4006 165.638 31.3006 165.378 31.1906 165.188C31.0706 164.958 30.8906 164.748 30.7106 164.558C30.6906 164.538 30.6706 164.518 30.6506 164.498C30.5006 164.358 30.2706 164.188 30.1006 164.078C30.0506 164.038 29.9906 164.018 29.9306 163.988C29.9406 163.988 29.9506 163.988 29.9606 163.998C29.9506 163.998 29.9406 163.998 29.9306 163.988C29.7506 163.898 29.5606 163.828 29.3806 163.758L29.5606 163.828C29.2106 163.688 28.9506 163.618 28.4406 163.598C28.1706 163.588 27.8906 163.658 27.6206 163.698C27.5506 163.708 27.4906 163.718 27.4206 163.738C26.7706 163.938 26.1006 164.288 25.6706 164.828C25.4406 165.118 25.2106 165.378 25.0506 165.708C24.8806 166.058 24.7106 166.428 24.6106 166.808C24.5006 167.188 24.4606 167.598 24.4206 167.978C24.4206 168.028 24.4106 168.078 24.4106 168.118C24.4006 168.258 24.4106 168.388 24.4506 168.518C24.4506 168.658 24.4806 168.788 24.5106 168.918C24.5206 168.958 24.5406 169.008 24.5506 169.048C24.7006 169.488 24.9006 169.888 25.2506 170.228C25.4206 170.408 25.6106 170.538 25.8206 170.638C26.1006 170.868 26.4306 171.008 26.7706 171.128C27.0706 171.238 27.4106 171.268 27.7206 171.278C28.0406 171.278 28.3706 171.238 28.6706 171.148C28.9006 171.078 29.1906 170.948 29.3706 170.868C29.4406 170.838 29.5006 170.808 29.5706 170.758C29.8206 170.578 30.1006 170.378 30.3106 170.138C30.5206 169.888 30.7406 169.618 30.9006 169.328C31.1306 168.908 31.3206 168.448 31.4506 167.988C31.5506 167.658 31.5806 167.288 31.6106 166.948C31.6106 166.888 31.6106 166.818 31.6106 166.758C31.6106 166.628 31.5806 166.478 31.5606 166.358V166.348Z" fill="#D90429"/>
<path d="M67.5305 143.758C67.5005 143.518 67.4805 143.268 67.4305 143.028C67.4305 142.998 67.4105 142.968 67.4005 142.928C67.3805 142.878 67.3605 142.828 67.3405 142.778C67.2805 142.608 67.2005 142.408 67.1205 142.268C67.1205 142.258 67.1105 142.248 67.1005 142.238C66.9805 142.078 66.8605 141.928 66.7405 141.768C66.6605 141.688 66.5805 141.628 66.4905 141.568C66.4105 141.498 66.3205 141.428 66.2305 141.368H66.2105C66.0205 141.278 65.8405 141.198 65.6505 141.118C65.2305 140.998 64.7005 140.968 64.2805 141.108C64.1805 141.148 64.0805 141.188 63.9805 141.238C63.8705 141.278 63.7705 141.328 63.6605 141.378C63.6305 141.398 63.6105 141.408 63.5805 141.428C63.1005 141.758 62.8205 142.038 62.5006 142.528C62.4105 142.658 62.3305 142.808 62.2605 142.948C62.1005 143.268 61.9605 143.598 61.8405 143.938C61.8105 144.008 61.8005 144.088 61.7905 144.168C61.7405 144.458 61.6605 144.748 61.6705 145.038C61.6705 145.168 61.6705 145.298 61.7105 145.428C61.7105 145.558 61.7305 145.688 61.7705 145.808C61.7705 145.838 61.7805 145.868 61.7905 145.888C61.8005 145.928 61.8105 145.968 61.8305 146.018C61.9105 146.218 62.0005 146.418 62.0805 146.608C62.2405 146.898 62.4505 147.128 62.7205 147.308C63.0205 147.538 63.1405 147.658 63.5705 147.758C63.5905 147.758 63.6205 147.758 63.6405 147.758C63.7505 147.818 63.8805 147.868 64.0105 147.898C64.5005 148.008 65.0805 147.998 65.5105 147.698C65.8405 147.468 66.1905 147.218 66.4405 146.898C66.6205 146.678 66.8005 146.458 66.9505 146.218C67.1005 145.958 67.2105 145.678 67.3205 145.398C67.3605 145.288 67.4005 145.168 67.4205 145.048C67.4805 144.748 67.5205 144.438 67.5505 144.128C67.5505 143.998 67.5505 143.868 67.5505 143.738L67.5305 143.758Z" fill="#D90429"/>
<path d="M57.0006 167.798C57.0106 167.488 56.9506 167.198 56.8006 166.928C56.7106 166.648 56.5506 166.408 56.3306 166.198C56.1206 165.978 55.8806 165.818 55.6006 165.728C55.3306 165.588 55.0406 165.518 54.7306 165.528C54.3206 165.528 53.9406 165.628 53.5806 165.838C53.4006 165.968 53.2306 166.108 53.0506 166.238C53.0206 166.258 53.0006 166.278 52.9806 166.308C52.9406 166.348 52.9006 166.388 52.8606 166.438C52.7206 166.618 52.5706 166.788 52.4506 166.978C52.4306 167.008 52.4106 167.038 52.4006 167.058C52.3206 167.198 52.2606 167.358 52.2006 167.508C52.1506 167.628 52.0906 167.748 52.0506 167.868C51.8906 168.318 51.9406 168.768 52.0406 169.228C52.0506 169.288 52.0706 169.348 52.0906 169.408C52.0906 169.408 52.0906 169.428 52.0906 169.438C52.1706 169.628 52.2506 169.818 52.3306 170.008C52.4806 170.288 52.6806 170.508 52.9406 170.678C53.0206 170.748 53.1006 170.818 53.1906 170.868C53.3806 170.948 53.5606 171.028 53.7506 171.108C53.7506 171.108 53.7606 171.108 53.7706 171.108C53.7706 171.108 53.7806 171.108 53.7906 171.108C53.9806 171.168 54.1806 171.198 54.3906 171.188C54.5906 171.158 54.7906 171.138 54.9906 171.108C55.2706 171.038 55.5206 170.908 55.7306 170.728C55.6706 170.778 55.6106 170.818 55.5506 170.868C55.5506 170.868 55.5506 170.868 55.5606 170.858C55.6506 170.788 55.9706 170.558 56.0406 170.478C56.1906 170.338 56.3106 170.178 56.4206 169.998C56.5006 169.808 56.5806 169.618 56.6606 169.428C56.6606 169.418 56.6606 169.408 56.6606 169.398C56.6706 169.348 56.6906 169.288 56.7106 169.238C56.7406 169.128 56.7606 168.908 56.7606 168.888C56.7806 168.758 56.7906 168.698 56.8006 168.658C56.9106 168.388 56.9906 168.098 56.9906 167.798H57.0006Z" fill="#D90429"/>
<path d="M69.9005 151.728C69.8405 151.468 69.7205 151.248 69.5505 151.058C69.4105 150.838 69.2305 150.678 69.0005 150.548C68.9105 150.498 68.8205 150.468 68.7305 150.438C68.6305 150.368 68.5405 150.288 68.4405 150.218C68.2605 150.098 68.0605 150.038 67.8505 150.028C67.7105 149.988 67.5705 149.988 67.4305 150.028C67.2205 150.028 67.0205 150.098 66.8405 150.218L66.5205 150.468C66.3205 150.668 66.1905 150.898 66.1105 151.168C66.0805 151.258 66.0705 151.358 66.0505 151.448C65.9805 151.578 65.8905 151.818 65.8405 151.958C65.8405 151.958 65.8405 151.978 65.8305 151.988C65.7905 152.088 65.7905 152.238 65.7805 152.318C65.7305 152.508 65.7305 152.688 65.7805 152.878C65.7805 152.978 65.8005 153.068 65.8205 153.168C65.8605 153.348 65.9305 153.518 66.0305 153.678C66.1405 153.818 66.2505 153.958 66.3605 154.098C66.3705 154.108 66.3905 154.128 66.4005 154.138C66.4905 154.218 66.7205 154.398 66.8305 154.468C66.8305 154.468 66.8405 154.468 66.8505 154.478C67.0105 154.578 67.2105 154.648 67.3705 154.698C67.3805 154.698 67.4005 154.698 67.4105 154.708C67.5005 154.718 67.5905 154.738 67.6805 154.748C67.8605 154.798 68.0305 154.798 68.2105 154.748C68.5205 154.708 68.6405 154.708 68.9505 154.508C69.0805 154.408 69.2205 154.308 69.3505 154.198C69.5405 154.018 69.6805 153.808 69.7605 153.568C69.8805 153.278 69.9505 153.178 69.9305 152.808V152.798C70.0205 152.448 70.0205 152.098 69.9305 151.748L69.9005 151.728Z" fill="#D90429"/>
<path d="M43.3106 28.0176C43.3106 28.0176 30.4306 40.7176 23.6406 40.7176C28.8306 53.7676 46.1706 51.0876 43.3106 28.0176Z" fill="#16272B"/>
<path d="M54.4006 29.6274C54.4006 29.6274 61.2006 40.7174 69.9606 39.9974C62.6306 51.7974 48.1406 43.9274 54.4006 29.6274Z" fill="#16272B"/>
<path d="M57.8306 50.6976C55.7906 48.1976 52.0806 47.8776 49.3206 49.3076C48.6906 49.6376 48.1206 50.0976 47.6006 50.5676C47.3306 50.8076 47.0706 51.0776 46.7906 51.3076C46.7906 51.3076 46.7006 51.3476 46.6006 51.3876C46.6806 51.3476 46.6306 51.3176 46.5406 51.3776C46.5006 51.3676 46.4506 51.3576 46.4206 51.3476C46.3906 51.3376 46.3606 51.3276 46.3506 51.3176C45.8506 51.0476 45.3906 50.7376 44.9206 50.4076C42.6806 48.8176 39.9606 47.6476 37.5706 49.7476C34.2506 52.6676 36.1606 57.7976 37.8906 61.0476C38.4206 62.0476 39.8106 62.3576 40.7606 61.7976C41.8106 61.1876 42.0006 59.9576 41.5106 58.9276C40.8206 57.4776 40.2606 55.8076 40.2206 54.1876C40.2106 53.7476 40.2206 53.1876 40.3906 52.9476C40.5106 52.7776 40.6606 52.7076 40.7506 52.6776C40.3906 52.8176 41.2006 52.7876 40.8106 52.6876C40.8506 52.6976 40.8806 52.7076 40.9106 52.7176C41.0206 52.7776 41.1206 52.8376 41.2206 52.8976C41.3406 52.9676 41.4506 53.0476 41.5606 53.1276C41.4206 53.0176 41.4506 53.0376 41.6506 53.1976C42.0506 53.5076 42.4206 53.8476 42.8106 54.1676C43.9206 55.0576 45.1106 55.8476 46.5806 55.9176C48.3806 56.0076 49.6106 54.9976 50.9306 53.9276C51.1706 53.7276 51.1106 53.7576 51.4906 53.5476C51.5906 53.4976 51.6306 53.4676 51.6406 53.4576C51.6606 53.4576 51.7206 53.4476 51.8306 53.4076C51.9906 53.3576 52.1506 53.3176 52.3106 53.2876C52.3406 53.2876 52.3706 53.2876 52.4106 53.2876C52.5006 53.2876 53.0806 53.3376 53.0906 53.3176C53.2906 53.3876 53.6806 53.5376 53.6206 53.4876C53.6906 53.5276 53.7606 53.5676 53.8306 53.6176C53.8406 53.6376 53.9006 53.6876 54.0006 53.7776C54.0706 53.8976 54.2306 54.1576 54.2406 54.1976C54.1306 53.9276 54.3306 54.7176 54.3606 54.6976C54.5606 56.2676 53.6406 57.7276 53.0906 59.2476C52.0906 62.0076 56.4506 63.8076 57.8206 61.2376C59.5206 58.0276 60.2906 53.7476 57.8206 50.7176L57.8306 50.6976Z" fill="#16272B"/>
<path d="M43.6105 33.5276C43.2705 34.5776 42.8905 35.6076 42.4105 36.5976C41.2505 38.9776 39.7105 41.1376 37.6405 42.8076C34.5405 45.3176 30.1105 46.3676 26.3105 45.0976C32.4405 51.9176 43.3105 48.7976 43.6105 33.5176V33.5276Z" fill="#16272B"/>
<path d="M66.7506 43.6575C66.6906 43.6575 66.6406 43.6775 66.5806 43.6875C64.3806 43.9575 62.0806 43.5875 60.0906 42.5975C56.7506 40.9275 54.2906 37.7075 53.0406 34.1875C51.5706 43.7875 60.1506 48.8475 66.7506 43.6575Z" fill="#16272B"/>
<path d="M38.1706 58.4378C37.6606 58.2978 37.0806 58.1478 36.5206 57.9678C36.9106 59.0778 37.4106 60.1278 37.8906 61.0378C38.4206 62.0378 39.8106 62.3478 40.7606 61.7878C41.7106 61.2378 41.9506 60.1778 41.6306 59.2278C40.4706 58.9978 39.3006 58.7578 38.1706 58.4378Z" fill="#16272B"/>
<path d="M59.3706 54.6477C58.8206 55.1977 58.3606 55.8377 57.7806 56.3677C57.0306 57.0677 56.1806 57.6377 55.2706 58.1277C54.6006 58.4877 53.9006 58.7677 53.1706 59.0177C53.1406 59.0877 53.1206 59.1577 53.0906 59.2177C52.0906 61.9777 56.4505 63.7777 57.8205 61.2077C58.8605 59.2477 59.5506 56.8777 59.3606 54.6377L59.3706 54.6477Z" fill="#16272B"/>
<path d="M38.5105 22.6474C37.6205 22.1774 36.3905 22.2274 35.6705 23.0174C35.0905 23.6574 34.7406 24.4374 34.3006 25.1674C33.9306 25.7874 33.5406 26.3774 33.1206 26.9574C33.0506 27.0574 32.9706 27.1574 32.9006 27.2574C32.8906 27.2674 32.6905 27.5174 32.6605 27.5574C32.4505 27.8074 32.2406 28.0574 32.0306 28.3074C31.5306 28.8674 31.0105 29.4074 30.4705 29.9274C29.9505 30.4174 29.4105 30.8974 28.8605 31.3574C28.7405 31.4574 28.6105 31.5674 28.4805 31.6674C28.4405 31.6974 28.4306 31.7074 28.4006 31.7274C28.3806 31.7474 28.3605 31.7574 28.3205 31.7874C28.0305 31.9974 27.7405 32.2074 27.4405 32.4174C26.2305 33.2474 24.9405 33.9574 23.6005 34.5474C22.6305 34.9774 22.3605 36.3274 22.7305 37.2074C23.1105 38.1074 24.2406 38.8174 25.2406 38.4374C28.3506 37.2774 31.2805 35.6074 33.7305 33.3574C34.9405 32.2474 36.0105 31.0074 37.0105 29.7074C37.4905 29.0874 37.9305 28.4474 38.3505 27.7774C38.8105 27.0374 39.4105 26.1674 39.5705 25.3074C39.7605 24.3174 39.4506 23.1674 38.4906 22.6574L38.5105 22.6474Z" fill="white"/>
<path d="M69.6806 31.8974C69.5206 30.8174 68.4606 30.0674 67.5206 29.7374C64.3006 28.6174 61.5606 26.5574 59.4806 23.8674C57.7306 21.6174 54.2206 24.4974 55.6006 26.8574C58.0206 30.9874 61.4906 33.8674 65.8806 35.6874C66.8706 36.0974 68.1706 35.5874 68.8906 34.8974C69.8006 34.0074 69.8706 33.0874 69.6806 31.8874V31.8974Z" fill="white"/>
<path d="M32.6505 118.458C31.5605 119.918 30.9305 121.738 30.0305 123.318C29.1305 124.898 28.1205 126.428 27.0005 127.848C24.7105 130.748 22.1005 133.358 19.0905 135.508C17.9105 136.348 18.9905 138.298 20.2505 137.488C23.5805 135.338 26.6705 132.698 29.1505 129.598C30.3805 128.058 31.5105 126.448 32.5105 124.748C33.5405 122.988 34.6205 121.088 34.8705 119.038C35.0305 117.728 33.2705 117.628 32.6605 118.438L32.6505 118.458Z" fill="white"/>
<path d="M53.4505 132.017C53.3005 130.297 53.1006 128.577 52.8906 126.857C52.7006 125.287 52.7205 123.447 51.6605 122.207C51.2105 121.687 50.2006 121.817 49.9006 122.437C49.2706 123.747 49.6205 125.197 49.7905 126.597C49.9805 128.147 50.1506 129.687 50.3006 131.237C50.6006 134.407 50.7706 137.597 50.6806 140.787C50.5306 145.927 50.1205 152.747 46.0405 156.467C44.8105 157.587 46.5906 159.287 47.8406 158.267C52.5306 154.447 53.4706 147.757 53.7506 142.067C53.9106 138.717 53.7506 135.347 53.4606 132.007L53.4505 132.017Z" fill="white"/>
<path d="M68.3106 130.598C66.8706 128.588 65.7106 126.338 64.7106 124.068C64.2406 122.998 63.8506 121.888 63.4706 120.788C63.0606 119.608 62.7806 118.088 61.8906 117.168C61.2506 116.508 60.1706 116.858 59.9106 117.688C59.5106 118.948 60.0906 120.528 60.4906 121.728C60.9106 123.018 61.4706 124.268 62.0706 125.478C63.2506 127.858 64.7706 129.978 66.4306 132.038C67.2806 133.088 69.1006 131.698 68.3106 130.588V130.598Z" fill="white"/>
<path d="M43.3106 158.578C41.2506 158.578 41.2506 161.778 43.3106 161.778C45.3706 161.778 45.3706 158.578 43.3106 158.578Z" fill="white"/>
<path d="M14.7005 136.758C12.6405 136.758 12.6405 139.958 14.7005 139.958C16.7605 139.958 16.7605 136.758 14.7005 136.758Z" fill="white"/>
<path d="M72.2806 132.828C70.2206 132.828 70.2206 136.028 72.2806 136.028C74.3406 136.028 74.3406 132.828 72.2806 132.828Z" fill="white"/>
<path d="M22.3206 8.90762C16.4906 12.6576 11.9906 17.6276 9.11057 23.9676C7.69057 27.0976 6.69058 30.3876 6.18058 33.7876C5.71058 36.8976 4.97058 41.2376 6.71058 44.0376C7.45058 45.2276 9.12056 44.9176 9.57056 43.6676C10.1006 42.1776 9.96056 40.5776 9.98056 38.9976C10.0006 37.4976 10.1006 35.9976 10.3306 34.5176C10.8006 31.4876 11.6806 28.5176 12.8606 25.6976C15.2106 20.1176 19.1306 14.7176 23.9106 10.9776C25.0806 10.0576 23.5606 8.11762 22.3206 8.91762V8.90762Z" fill="white"/>
<path d="M10.0506 49.4878C7.99055 49.4878 7.99055 52.6878 10.0506 52.6878C12.1106 52.6878 12.1106 49.4878 10.0506 49.4878Z" fill="white"/>
<path d="M50.6606 67.9478C50.4406 67.2578 49.7606 66.8578 49.0506 67.0278C48.8406 67.0778 48.6306 67.1178 48.4106 67.1578C48.2606 67.1778 48.2906 67.1778 48.4906 67.1578C48.3406 67.1778 48.1906 67.1978 48.0406 67.2178L47.9506 67.2378C47.8006 67.2578 47.8306 67.2578 48.0306 67.2378C47.8706 67.3178 47.5606 67.2878 47.3806 67.2878C47.1606 67.2878 46.9506 67.2878 46.7306 67.2878C46.6406 67.2878 46.5406 67.2778 46.4506 67.2678C46.4006 67.2678 46.3406 67.2678 46.2906 67.2478C46.1006 67.1878 45.8706 67.1778 45.6906 67.1378C45.4806 67.0878 45.2706 67.0278 45.0606 66.9678C44.9706 66.9378 44.8806 66.9078 44.8006 66.8778C44.7406 66.8578 44.3706 66.6978 44.6606 66.8278C44.3506 66.6978 44.0706 66.6178 43.7406 66.7078C43.4606 66.7878 43.1606 66.9978 43.0206 67.2578C42.7306 67.8078 42.8506 68.5978 43.4506 68.8978C45.3706 69.8678 47.6706 70.2178 49.7506 69.5778C50.4006 69.3778 50.8906 68.6578 50.6706 67.9678L50.6606 67.9478Z" fill="white"/>
</svg>
