<svg width="280" height="85" viewBox="0 0 280 85" fill="none" xmlns="http://www.w3.org/2000/svg">
<path d="M42.6984 0C66.122 0 85.1105 18.9885 85.1105 42.4121C85.1105 65.8357 66.122 84.8242 42.6984 84.8242C19.2748 84.8242 0.286285 65.8357 0.286285 42.4121C0.286331 18.9886 19.2749 4.53617e-05 42.6984 0ZM62.1447 19.832C61.7207 19.7048 61.2541 19.6627 60.7453 19.7051C60.2363 19.7475 59.7479 19.7686 59.2814 19.7686H25.1183C24.8215 19.7262 24.5034 19.7262 24.1642 19.7686C23.9522 19.7686 23.7193 19.8328 23.465 19.96L23.4005 20.0234C23.3584 20.0236 23.3371 20.0446 23.3371 20.0869H23.2736C23.0616 20.2141 22.892 20.4048 22.7648 20.6592C22.7224 20.7016 22.7013 20.7658 22.7013 20.8506C22.7012 20.893 22.6801 20.9565 22.6378 21.041C22.553 21.4227 22.5099 21.8892 22.5099 22.4404C22.5523 22.9494 22.5744 23.3104 22.5744 23.5225V31.7285C22.5744 32.2799 22.786 32.7261 23.2101 33.0654C23.2525 33.1081 23.316 33.2349 23.4005 33.4463C23.5275 33.6156 23.5705 33.6796 23.5285 33.6377C23.5708 33.7225 23.5919 33.829 23.5919 33.9561C23.6343 34.0829 23.6766 34.1464 23.7189 34.1465C23.8036 34.1465 23.8458 34.1041 23.8459 34.0195C24.4818 34.6979 24.8429 35.0791 24.9279 35.1641C25.0127 35.2489 25.0548 35.292 25.0548 35.292C25.0602 35.298 25.2298 35.4887 25.5636 35.8643L26.0724 36.373C26.1996 36.5002 26.3271 36.6488 26.4543 36.8184C26.5815 36.9456 26.7089 37.0519 26.8361 37.1367C26.8785 37.5184 26.8785 37.9216 26.8361 38.3457V39.4902C26.8785 39.3207 27.0271 39.1932 27.2814 39.1084C27.5783 39.066 27.7698 39.3207 27.8546 39.8721C27.8122 39.4479 27.7691 39.0448 27.7267 38.6631C27.7267 38.2816 27.7478 37.8789 27.7902 37.4551H27.8546C27.8971 37.4127 27.9181 37.3906 27.9181 37.3906H27.9816C28.0238 37.3484 28.0451 37.3271 28.0451 37.3271C28.1299 37.2423 28.2152 37.1149 28.3 36.9453C28.427 36.7335 28.5115 36.6059 28.5539 36.5635C28.5962 36.5212 28.6385 36.4788 28.6808 36.4365C28.6809 36.3942 28.7029 36.373 28.7453 36.373V36.3096C28.7873 36.3094 28.8087 36.2882 28.8087 36.2461C28.9783 36.7973 29.0627 37.2639 29.0627 37.6455C29.0627 37.5183 29.0837 37.3698 29.1261 37.2002C29.2109 37.0306 29.2751 36.8399 29.3175 36.6279C29.3599 36.5431 29.4021 36.4367 29.4445 36.3096C29.4869 36.1823 29.5511 36.0971 29.6359 36.0547L29.7628 36.1826C29.8053 36.2251 29.8899 36.3097 30.0168 36.4365C30.144 36.5213 30.1871 36.5424 30.1447 36.5C30.2295 36.5848 30.3358 36.7122 30.463 36.8818C30.5902 37.0089 30.7168 37.1154 30.8439 37.2002L31.0353 38.0908C31.0777 38.218 31.0988 38.4088 31.0988 38.6631C31.0988 38.8749 31.1622 38.9601 31.2892 38.918C31.5012 38.8332 31.5864 38.6635 31.5441 38.4092C31.5017 38.1547 31.5227 37.9421 31.6076 37.7725H31.8625C32.2016 37.4757 32.3712 37.3061 32.3712 37.2637C32.3713 37.2212 32.4345 37.1149 32.5617 36.9453C32.6465 36.8605 32.7317 36.7973 32.8166 36.7549L32.9435 36.6279C33.1132 36.4583 33.2616 36.2878 33.3888 36.1182C33.516 35.9486 33.6224 35.779 33.7072 35.6094L34.089 34.8467C34.1738 34.7196 34.237 34.5708 34.2794 34.4014C34.3219 34.2317 34.365 34.0612 34.4074 33.8916C34.4074 33.807 34.4285 33.7435 34.4709 33.7012C34.5556 33.5316 34.5978 33.4463 34.5978 33.4463L34.8527 33.9561V61.1211C34.8527 61.2906 34.8306 61.4604 34.7882 61.6299V62.1387C34.7883 62.4355 34.8314 62.7535 34.9162 63.0928C35.0009 63.347 35.0853 63.5167 35.1701 63.6016C35.3821 63.8984 35.6579 64.111 35.9972 64.2383C36.082 64.2383 36.1242 64.2593 36.1242 64.3018H36.2521C36.4216 64.3018 36.5703 64.365 36.6974 64.4922C36.7822 64.6618 36.8454 64.7681 36.8878 64.8105V64.874C36.9301 64.9163 36.9512 64.9587 36.9513 65.001C37.1209 65.2977 37.2906 65.5949 37.4601 65.8916C37.6298 66.1885 37.8002 66.5074 37.9699 66.8467C37.9729 66.8497 37.9943 66.8711 38.0334 66.9102C38.1179 66.9525 38.1603 67.0159 38.1603 67.1006C38.542 67.6519 38.7326 68.3731 38.7326 69.2637C38.775 70.1967 38.7329 71.1725 38.6056 72.1904C38.4784 73.2505 38.3721 74.2046 38.2873 75.0527C38.2449 75.9434 38.3511 76.6223 38.6056 77.0889C38.6057 77.1312 38.648 77.1947 38.7326 77.2793C38.8171 77.3638 38.8602 77.3855 38.8605 77.3438C38.9029 76.8773 38.924 76.1771 38.924 75.2441C38.9664 74.3535 38.9875 73.3988 38.9875 72.3809C39.0299 71.3632 39.0509 70.3879 39.0509 69.4551C39.0509 68.5645 39.072 67.8855 39.1144 67.4189C39.1992 67.3765 39.2845 67.3124 39.3693 67.2275C39.4539 67.1429 39.5174 67.0795 39.5597 67.0371C39.6021 66.9947 39.6452 66.9526 39.6877 66.9102C39.7301 66.8253 39.7933 66.7401 39.8781 66.6553C40.0901 66.316 40.2807 66.0191 40.4503 65.7646C40.6624 65.5102 40.875 65.2554 41.0871 65.001L41.1505 64.9375C41.1507 64.8951 41.1929 64.8317 41.2775 64.7471C41.3623 64.7047 41.4265 64.6405 41.4689 64.5557C41.5538 64.598 41.7023 64.6191 41.9142 64.6191H42.1046C42.2319 64.7464 42.3803 64.9168 42.55 65.1289C42.7619 65.3833 42.9105 65.5529 42.9953 65.6377C43.1224 65.892 43.1866 66.125 43.1867 66.3369C43.2503 66.7821 43.2899 67.2277 43.3058 67.6729L43.3214 68.5635C43.3373 69.009 43.3769 69.4549 43.4406 69.9004C43.4407 69.9422 43.462 69.9423 43.5041 69.9004C43.5889 69.9004 43.6531 69.8783 43.6955 69.8359C43.7801 69.6664 43.8224 69.4756 43.8224 69.2637C43.8648 69.0518 43.907 68.861 43.9494 68.6914C43.9494 68.6914 43.9925 68.4577 44.0773 67.9912C44.1621 67.5248 44.2464 67.0582 44.3312 66.5918C44.416 66.1253 44.4582 65.8705 44.4582 65.8281L44.713 65.5742L45.0949 65.3193V65.2559C45.1371 65.2558 45.1583 65.2346 45.1584 65.1924L45.2218 65.1289C45.349 65.1713 45.4343 65.2556 45.4767 65.3828C45.5615 65.5523 45.6459 65.6798 45.7306 65.7646C46.0274 65.9766 46.2612 65.8921 46.4308 65.5107C46.6004 65.1716 46.7489 64.8956 46.8761 64.6836C47.2575 64.5141 47.4058 64.4923 47.3214 64.6191C47.279 64.7464 47.4275 64.8738 47.7668 65.001C47.8516 65.001 47.9368 64.9378 48.0216 64.8105C48.1064 64.7259 48.1908 64.7047 48.2755 64.7471C48.3604 64.7471 48.4456 64.7892 48.5304 64.874C48.6152 65.0012 48.6996 65.0865 48.7843 65.1289C48.9964 65.1713 49.1879 65.1071 49.3576 64.9375C49.4423 64.8527 49.5268 64.7462 49.6115 64.6191C49.6962 64.5344 49.7605 64.45 49.8029 64.3652C49.8452 64.3229 49.8875 64.2806 49.9298 64.2383C49.9723 64.1959 50.0144 64.1528 50.0568 64.1104C50.3113 63.9831 50.5239 63.8136 50.6935 63.6016C50.7357 63.5593 50.7569 63.5169 50.757 63.4746C50.7994 63.4322 50.8626 63.3259 50.9474 63.1562C50.9475 63.114 50.9687 63.0716 51.0109 63.0293V62.2656C51.0533 61.9688 51.0533 61.6508 51.0109 61.3115V33.6377L51.3927 34.0195L51.838 34.6553C51.9653 34.8673 52.1137 35.101 52.2834 35.3555C52.7074 36.0339 53.1107 36.7121 53.4923 37.3906C53.9165 38.0268 54.3196 38.6847 54.7013 39.3633L55.2736 40.4443L55.3371 40.5078L55.5285 40.8896C55.6133 41.0593 55.6976 41.2508 55.7824 41.4629C55.9096 41.6325 56.037 41.8231 56.1642 42.0352L56.2912 42.1621C56.5452 42.4162 56.6726 42.5859 56.673 42.6709C56.7154 42.7557 56.7585 42.8199 56.8009 42.8623C56.9651 42.9855 57.0498 43.0489 57.0548 43.0527C57.1395 42.968 57.1817 42.8624 57.1818 42.7354C57.2242 42.6081 57.2673 42.5018 57.3097 42.417C57.5642 42.2473 57.84 41.9504 58.1369 41.5264C58.6034 40.8054 58.9845 40.1053 59.2814 39.4268C59.6207 38.7058 59.9386 38.0057 60.2355 37.3271C60.4475 36.9455 60.6391 36.5643 60.8087 36.1826C60.9784 35.8009 61.1479 35.4188 61.3175 35.0371C61.5296 34.6979 61.6991 34.4009 61.8263 34.1465C61.9536 33.8496 62.102 33.6159 62.2716 33.4463C62.314 33.4039 62.3563 33.3405 62.3986 33.2559C62.4834 33.171 62.5476 33.1289 62.59 33.1289L62.7804 32.9375L63.0988 32.5557C63.1304 32.524 63.1504 32.4926 63.1584 32.4609L63.1662 32.3965C63.1742 32.3649 63.1942 32.3334 63.2257 32.3018C63.1836 32.3438 63.1834 32.3008 63.2257 32.1738C63.2681 32.0046 63.2892 31.9623 63.2892 32.0469C63.374 31.7077 63.396 31.3685 63.3537 31.0293C63.3113 30.6478 63.2892 30.3085 63.2892 30.0117V23.9043C63.3316 23.141 63.3316 22.4197 63.2892 21.7412C63.2892 21.4444 63.2681 21.1685 63.2257 20.9141C63.1833 20.6596 63.0138 20.4259 62.7169 20.2139C62.6746 20.1292 62.5899 20.0658 62.463 20.0234C62.3782 19.9386 62.2719 19.8744 62.1447 19.832ZM26.8361 39.4902C26.6665 39.9143 26.6033 40.5293 26.6457 41.335C26.7305 42.0984 26.8368 42.7141 26.964 43.1807C27.0911 43.6466 27.1122 43.689 27.0275 43.3076C26.9003 42.7139 26.815 42.099 26.7726 41.4629C26.7726 40.8267 26.7937 40.1688 26.8361 39.4902ZM27.8546 40.4443C27.8546 40.9109 27.8115 41.4203 27.7267 41.9717C27.6419 42.5229 27.5576 42.9473 27.4728 43.2441C27.4305 43.4983 27.4515 43.4983 27.5363 43.2441C27.7059 42.7778 27.7901 42.3111 27.7902 41.8447C27.8326 41.3782 27.8546 40.9109 27.8546 40.4443Z" fill="white"/>
<path d="M137.511 29.6219C137.511 29.9188 137.532 30.2581 137.575 30.6398C137.617 30.9791 137.596 31.3184 137.511 31.6577C137.511 31.5729 137.49 31.6153 137.447 31.785C137.405 31.9122 137.405 31.9546 137.447 31.9122C137.405 31.9546 137.384 31.997 137.384 32.0394C137.384 32.0818 137.362 32.1243 137.32 32.1667L137.002 32.5484L136.811 32.7392C136.769 32.7392 136.705 32.7816 136.62 32.8665C136.578 32.9513 136.535 33.0149 136.493 33.0573C136.323 33.227 136.175 33.4602 136.048 33.7571C135.92 34.0116 135.751 34.3085 135.539 34.6478C135.369 35.0295 135.199 35.4112 135.03 35.7929C134.86 36.1746 134.669 36.5563 134.457 36.938C134.16 37.6166 133.842 38.3164 133.503 39.0374C133.206 39.716 132.824 40.4158 132.358 41.1368C132.061 41.561 131.785 41.8579 131.531 42.0275C131.488 42.1123 131.446 42.2184 131.404 42.3456C131.404 42.4728 131.361 42.5789 131.276 42.6637C131.276 42.6637 131.192 42.6001 131.022 42.4728C130.979 42.4304 130.937 42.3668 130.895 42.282C130.895 42.1971 130.767 42.0275 130.513 41.773L130.386 41.6458C130.258 41.4337 130.131 41.2429 130.004 41.0732C129.919 40.8612 129.834 40.6703 129.75 40.5007L129.559 40.119L129.495 40.0553L128.922 38.9738C128.541 38.2952 128.138 37.6378 127.714 37.0017C127.332 36.3231 126.929 35.6445 126.505 34.9659C126.335 34.7114 126.187 34.4781 126.06 34.2661L125.614 33.6299C125.487 33.5026 125.36 33.3754 125.233 33.2482V33.5663V60.9221C125.275 61.2614 125.275 61.5795 125.233 61.8764C125.233 62.1733 125.233 62.3854 125.233 62.5126V62.6398C125.19 62.6822 125.169 62.7247 125.169 62.7671C125.084 62.9367 125.021 63.0427 124.978 63.0852C124.978 63.1276 124.957 63.17 124.915 63.2124C124.745 63.4245 124.533 63.5941 124.278 63.7213C124.236 63.7638 124.194 63.8062 124.151 63.8486C124.109 63.891 124.066 63.9334 124.024 63.9758C123.981 64.0606 123.918 64.1455 123.833 64.2303C123.748 64.3575 123.663 64.4636 123.579 64.5484C123.409 64.718 123.218 64.7816 123.006 64.7392C122.921 64.6968 122.836 64.612 122.751 64.4848C122.667 64.3999 122.582 64.3575 122.497 64.3575C122.412 64.3151 122.327 64.3363 122.243 64.4211C122.158 64.5484 122.073 64.612 121.988 64.612C121.649 64.4848 121.5 64.3575 121.543 64.2303C121.628 64.103 121.479 64.1243 121.097 64.2939C120.97 64.506 120.822 64.7816 120.652 65.1209C120.482 65.5027 120.249 65.5875 119.952 65.3754C119.867 65.2906 119.783 65.1634 119.698 64.9937C119.655 64.8665 119.571 64.7816 119.443 64.7392L119.38 64.8028C119.38 64.8453 119.359 64.8665 119.316 64.8665C119.316 64.9089 119.316 64.9301 119.316 64.9301L118.934 65.1846L118.68 65.439C118.68 65.4814 118.638 65.7359 118.553 66.2025C118.468 66.669 118.383 67.1355 118.298 67.6021C118.213 68.0686 118.171 68.3019 118.171 68.3019C118.129 68.4715 118.086 68.6624 118.044 68.8744C118.044 69.0865 118.001 69.2773 117.916 69.447C117.874 69.4894 117.81 69.5106 117.726 69.5106C117.683 69.553 117.662 69.553 117.662 69.5106C117.577 68.9168 117.535 68.3231 117.535 67.7293C117.535 67.1355 117.492 66.5417 117.408 65.948C117.408 65.7359 117.344 65.5027 117.217 65.2482C117.132 65.1634 116.983 64.9937 116.771 64.7392C116.602 64.5272 116.453 64.3575 116.326 64.2303H116.135C115.923 64.2303 115.775 64.2091 115.69 64.1667C115.647 64.2515 115.584 64.3151 115.499 64.3575C115.414 64.4423 115.372 64.506 115.372 64.5484L115.308 64.612C115.096 64.8665 114.884 65.1209 114.672 65.3754C114.502 65.6299 114.311 65.9268 114.099 66.2661C114.015 66.3509 113.951 66.4357 113.909 66.5205C113.866 66.563 113.824 66.6054 113.781 66.6478C113.739 66.6902 113.675 66.7538 113.59 66.8386C113.506 66.9235 113.421 66.9871 113.336 67.0295C113.294 67.496 113.272 68.1746 113.272 69.0653C113.272 69.9983 113.251 70.9738 113.209 71.9917C113.209 73.0096 113.188 73.9639 113.145 74.8545C113.145 75.7876 113.124 76.4874 113.082 76.9539C113.082 76.9964 113.039 76.9751 112.954 76.8903C112.869 76.8055 112.827 76.7419 112.827 76.6995C112.573 76.2329 112.467 75.5543 112.509 74.6637C112.594 73.8154 112.7 72.8612 112.827 71.8009C112.954 70.783 112.997 69.8075 112.954 68.8744C112.954 67.9838 112.763 67.2628 112.382 66.7114C112.382 66.6266 112.339 66.563 112.254 66.5205C112.212 66.4781 112.191 66.4569 112.191 66.4569C112.021 66.1176 111.852 65.7995 111.682 65.5027C111.512 65.2058 111.343 64.9089 111.173 64.612C111.173 64.5696 111.152 64.5272 111.109 64.4848C111.109 64.4848 111.109 64.4636 111.109 64.4211C111.067 64.3787 111.003 64.2727 110.918 64.103C110.791 63.9758 110.643 63.9122 110.473 63.9122C110.431 63.9122 110.388 63.9122 110.346 63.9122C110.346 63.8698 110.304 63.8486 110.219 63.8486C109.879 63.7213 109.604 63.5093 109.392 63.2124C109.307 63.1276 109.222 62.9579 109.137 62.7034C109.052 62.3641 109.01 62.0461 109.01 61.7492C109.01 61.5371 109.01 61.3675 109.01 61.2402C109.052 61.0706 109.074 60.9009 109.074 60.7313V33.5663L108.819 33.0573C108.819 33.0573 108.777 33.1421 108.692 33.3118C108.649 33.3542 108.628 33.4178 108.628 33.5026C108.586 33.6723 108.543 33.8419 108.501 34.0116C108.459 34.1812 108.395 34.3297 108.31 34.4569L107.928 35.2203C107.844 35.39 107.738 35.5596 107.61 35.7293C107.483 35.8989 107.335 36.0686 107.165 36.2382C107.08 36.3231 107.038 36.3655 107.038 36.3655C106.953 36.4079 106.868 36.4715 106.783 36.5563C106.656 36.726 106.592 36.832 106.592 36.8744C106.592 36.9168 106.423 37.0865 106.083 37.3834C105.914 37.3834 105.829 37.3834 105.829 37.3834C105.744 37.553 105.723 37.7651 105.765 38.0195C105.808 38.274 105.723 38.4437 105.511 38.5285C105.384 38.5709 105.32 38.4861 105.32 38.274C105.32 38.0195 105.299 37.8287 105.256 37.7015L105.066 36.8108C104.938 36.726 104.811 36.6199 104.684 36.4927C104.557 36.3231 104.451 36.1958 104.366 36.111C104.408 36.1534 104.366 36.1322 104.239 36.0474C104.111 35.9201 104.027 35.8353 103.984 35.7929L103.857 35.6657C103.772 35.7081 103.708 35.7929 103.666 35.9201C103.624 36.0474 103.581 36.1534 103.539 36.2382C103.496 36.4503 103.433 36.6412 103.348 36.8108C103.305 36.9804 103.284 37.1289 103.284 37.2561C103.284 36.8744 103.199 36.4079 103.03 35.8565C103.03 35.8989 103.009 35.9201 102.966 35.9201C102.966 35.9201 102.966 35.9414 102.966 35.9838C102.924 35.9838 102.903 36.005 102.903 36.0474C102.86 36.0898 102.818 36.1322 102.775 36.1746C102.733 36.217 102.648 36.3443 102.521 36.5563C102.436 36.726 102.351 36.8532 102.266 36.938C102.266 36.938 102.245 36.9592 102.203 37.0017C102.203 37.0017 102.182 37.0017 102.139 37.0017C102.139 37.0017 102.118 37.0229 102.076 37.0653C102.076 37.0653 102.054 37.0653 102.012 37.0653C101.97 37.4894 101.948 37.8923 101.948 38.274C101.991 38.6557 102.033 39.0586 102.076 39.4828C101.991 38.9314 101.8 38.6769 101.503 38.7193C101.249 38.8042 101.1 38.9314 101.058 39.1011C101.058 38.7193 101.058 38.3376 101.058 37.9559C101.1 37.5318 101.1 37.1289 101.058 36.7472C100.93 36.6624 100.803 36.5563 100.676 36.4291C100.549 36.2594 100.421 36.111 100.294 35.9838L99.7853 35.4748C99.446 35.0931 99.2763 34.9023 99.2763 34.9023C99.2763 34.9023 99.2339 34.8598 99.1491 34.775C99.0643 34.6902 98.7038 34.3085 98.0676 33.6299C98.0676 33.7147 98.0252 33.7571 97.9404 33.7571C97.8979 33.7571 97.8555 33.6935 97.8131 33.5663C97.8131 33.439 97.7919 33.333 97.7495 33.2482C97.7919 33.2906 97.7495 33.227 97.6223 33.0573C97.5374 32.8453 97.4738 32.718 97.4314 32.6756C97.0073 32.3363 96.7952 31.891 96.7952 31.3396V23.1329C96.7952 22.9208 96.774 22.5603 96.7316 22.0514C96.7316 21.5 96.774 21.0335 96.8588 20.6518C96.9013 20.5669 96.9225 20.5033 96.9225 20.4609C96.9225 20.3761 96.9437 20.3125 96.9861 20.27C97.1133 20.0156 97.283 19.8247 97.495 19.6975C97.5374 19.6975 97.5586 19.6975 97.5586 19.6975C97.5586 19.6551 97.5799 19.6339 97.6223 19.6339L97.6859 19.5702C97.9404 19.443 98.1736 19.3794 98.3857 19.3794C98.725 19.337 99.0431 19.337 99.34 19.3794C99.6793 19.3794 99.9973 19.3794 100.294 19.3794H133.503C133.97 19.3794 134.457 19.3582 134.966 19.3158C135.475 19.2734 135.942 19.3158 136.366 19.443C136.493 19.4854 136.599 19.549 136.684 19.6339C136.811 19.6763 136.896 19.7399 136.938 19.8247C137.235 20.0368 137.405 20.27 137.447 20.5245C137.49 20.779 137.511 21.0547 137.511 21.3516C137.553 22.0301 137.553 22.7512 137.511 23.5146C137.511 24.2356 137.511 24.9566 137.511 25.6776V29.6219ZM101.249 42.9182C101.333 43.2999 101.312 43.2575 101.185 42.7909C101.058 42.3244 100.952 41.7094 100.867 40.946C100.824 40.1402 100.888 39.5252 101.058 39.1011C101.015 39.7797 100.994 40.437 100.994 41.0732C101.036 41.7094 101.121 42.3244 101.249 42.9182ZM101.757 42.8545C101.673 43.109 101.651 43.109 101.694 42.8545C101.779 42.5577 101.863 42.1335 101.948 41.5822C102.033 41.0308 102.076 40.5219 102.076 40.0553C102.076 40.5219 102.054 40.9884 102.012 41.4549C102.012 41.9215 101.927 42.388 101.757 42.8545ZM181.025 55.2601C180.813 55.7691 180.601 56.1296 180.389 56.3416L179.626 57.4867C179.244 57.9957 178.82 58.4834 178.353 58.95L177.208 59.9679C177.166 60.7313 177.123 61.4947 177.081 62.2581C177.081 63.0215 177.06 63.8062 177.017 64.612C176.975 64.9937 176.975 65.3754 177.017 65.7571C177.06 66.1812 176.975 66.563 176.763 66.9023C176.593 67.1143 176.508 66.9659 176.508 66.4569C176.551 65.948 176.572 65.5451 176.572 65.2482C176.53 64.5272 176.487 63.785 176.445 63.0215C176.445 62.2157 176.402 61.4523 176.318 60.7313C176.021 61.0706 175.766 61.4947 175.554 62.0036C175.342 62.5126 175.172 62.9791 175.045 63.4032C174.791 64.1243 174.536 64.8665 174.282 65.6299C174.027 66.3933 173.752 67.1355 173.455 67.8565C173.328 68.1958 173.2 68.5351 173.073 68.8744C172.946 69.2561 172.776 69.5954 172.564 69.8923C172.522 69.9347 172.437 69.9983 172.31 70.0832C172.225 70.168 172.14 70.2316 172.055 70.274C171.758 70.3164 171.504 70.1256 171.292 69.7015C171.08 69.3197 170.931 69.0441 170.846 68.8744C170.804 68.7896 170.74 68.7048 170.656 68.6199C170.613 68.5351 170.592 68.4503 170.592 68.3655C170.55 67.7293 170.507 67.0719 170.465 66.3933C170.465 65.7571 170.422 65.0997 170.337 64.4211C170.168 64.6756 169.977 64.9301 169.765 65.1846C169.595 65.439 169.404 65.6935 169.192 65.948C169.108 66.0328 169.065 66.0752 169.065 66.0752C169.023 66.16 168.959 66.2237 168.874 66.2661C168.789 66.3509 168.705 66.4357 168.62 66.5205C168.577 66.6054 168.493 66.7538 168.365 66.9659C168.28 67.2203 168.196 67.39 168.111 67.4748C168.026 67.5596 167.941 67.5596 167.856 67.4748C167.729 67.39 167.623 67.1991 167.538 66.9023C167.496 66.6478 167.432 66.4569 167.347 66.3297C167.178 66.2025 167.029 66.0328 166.902 65.8207C166.775 65.6087 166.669 65.4178 166.584 65.2482C166.499 65.1209 166.414 64.9725 166.33 64.8028C166.287 65.0149 166.245 65.2482 166.202 65.5027C166.202 65.7995 166.16 66.054 166.075 66.2661C166.075 66.2661 165.99 66.2661 165.821 66.2661C165.693 66.2661 165.566 66.2449 165.439 66.2025C165.312 66.2025 165.184 66.2025 165.057 66.2025C164.76 66.16 164.548 66.1176 164.421 66.0752H164.039C163.827 66.2025 163.488 66.2025 163.021 66.0752C162.979 66.0328 162.915 65.9904 162.831 65.948C162.788 65.9056 162.767 65.9056 162.767 65.948C162.682 66.7114 162.64 67.4536 162.64 68.1746C162.64 68.938 162.597 69.6803 162.512 70.4013C162.47 70.5709 162.428 70.4861 162.385 70.1468C162.343 69.8499 162.3 69.6166 162.258 69.447C162.216 68.7684 162.194 68.0898 162.194 67.4112C162.237 66.7326 162.173 66.054 162.003 65.3754C161.961 65.1209 161.919 65.1421 161.876 65.439C161.876 65.7359 161.876 66.0964 161.876 66.5205C161.876 66.9447 161.834 67.2628 161.749 67.4748C161.707 67.6445 161.664 67.5596 161.622 67.2203C161.622 66.9235 161.601 66.6902 161.558 66.5205L161.176 64.5484H161.113C156.914 64.4636 153.267 63.7213 150.17 62.3217C147.074 60.9221 144.678 58.8651 142.982 56.1508C142.685 55.8115 142.43 55.4085 142.218 54.942C142.049 54.4755 141.9 54.0302 141.773 53.606L141.391 52.7154V52.6518C141.306 52.3973 141.222 52.1428 141.137 51.8883C141.052 51.6339 140.967 51.3794 140.882 51.1249C140.713 50.4887 140.585 49.6617 140.5 48.6438C140.416 47.6259 140.373 46.6292 140.373 45.6537C140.373 44.6359 140.373 43.8088 140.373 43.1726C140.373 42.3244 140.373 41.4761 140.373 40.6279C140.373 39.7372 140.394 38.889 140.437 38.0832V37.5742C140.437 36.9804 140.437 36.3655 140.437 35.7293C140.479 35.0931 140.564 34.4781 140.691 33.8844C140.691 33.7995 140.691 33.7359 140.691 33.6935C140.734 33.6511 140.755 33.6087 140.755 33.5663C141.137 31.2336 141.9 29.1554 143.045 27.3317C143.427 26.5683 143.936 25.8685 144.572 25.2323C148.389 20.9062 154.115 18.7432 161.749 18.7432H163.085C163.17 18.7432 163.233 18.7644 163.276 18.8068C163.488 18.8068 163.679 18.8068 163.848 18.8068C164.06 18.8068 164.251 18.828 164.421 18.8704C164.548 18.828 164.654 18.828 164.739 18.8704C164.866 18.8704 164.994 18.8704 165.121 18.8704L166.202 19.0613C166.626 19.1037 167.029 19.1673 167.411 19.2522C167.835 19.337 168.259 19.4218 168.683 19.5066C169.15 19.549 169.68 19.6763 170.274 19.8883C170.316 19.8883 170.337 19.9095 170.337 19.952C170.38 19.952 170.422 19.952 170.465 19.952C170.804 19.9944 171.122 20.0792 171.419 20.2064C171.758 20.2912 172.034 20.4185 172.246 20.5881C174.96 21.6909 177.293 23.3449 179.244 25.5504C179.838 26.1441 180.368 26.95 180.834 27.9679C181.598 29.4099 182.17 30.9155 182.552 32.4848C182.679 32.7816 182.743 33.1421 182.743 33.5663L182.934 34.775C182.976 35.2415 182.998 35.7081 182.998 36.1746C183.04 36.6412 183.061 37.1077 183.061 37.5742C183.104 38.2104 183.125 38.995 183.125 39.9281C183.125 40.8612 183.125 41.7942 183.125 42.7273C183.125 43.6604 183.125 44.445 183.125 45.0812C183.082 45.887 183.061 46.714 183.061 47.5623C183.061 48.3681 182.955 49.1527 182.743 49.9162C182.446 51.8671 181.874 53.6484 181.025 55.2601ZM159.077 50.9977C159.332 51.337 159.607 51.6339 159.904 51.8883C160.328 51.9732 160.837 52.058 161.431 52.1428H162.194C162.322 52.1004 162.449 52.0792 162.576 52.0792C162.746 52.0792 162.894 52.058 163.021 52.0156C163.827 51.8035 164.485 51.4218 164.994 50.8704C165.206 50.6584 165.396 50.4039 165.566 50.107C165.736 49.8101 165.863 49.5133 165.948 49.2164L166.139 48.5166C166.308 47.7956 166.393 47.0958 166.393 46.4172C166.436 45.6962 166.478 45.0812 166.52 44.5722V40.1826C166.52 39.6736 166.52 39.1647 166.52 38.6557C166.52 38.1044 166.499 37.5742 166.457 37.0653C166.457 36.7684 166.457 36.4927 166.457 36.2382C166.457 35.9413 166.436 35.6657 166.393 35.4112C166.351 35.3264 166.33 35.2415 166.33 35.1567C166.33 35.0295 166.308 34.9447 166.266 34.9023C166.266 34.775 166.223 34.5842 166.139 34.3297C166.011 33.8207 165.821 33.3966 165.566 33.0573C165.312 32.6756 165.015 32.3363 164.675 32.0394L164.612 31.9758C164.442 31.891 164.336 31.8486 164.294 31.8486C164.209 31.8062 164.06 31.785 163.848 31.785C163.806 31.785 163.764 31.8062 163.721 31.8486C163.679 31.891 163.594 31.9334 163.467 31.9758C163.424 31.9758 163.382 31.9758 163.339 31.9758C163.339 31.9334 163.297 31.9122 163.212 31.9122C163.043 31.9546 162.852 32.0606 162.64 32.2303C162.428 32.3999 162.258 32.5484 162.131 32.6756C162.046 32.718 161.919 32.7816 161.749 32.8665C161.579 32.9513 161.473 33.0361 161.431 33.1209C161.261 33.333 161.176 33.5239 161.176 33.6935C161.176 33.8632 161.007 33.9268 160.667 33.8844C160.371 33.8844 160.243 33.8419 160.286 33.7571C160.371 33.6723 160.307 33.4814 160.095 33.1846C160.053 33.0997 159.989 33.0361 159.904 32.9937C159.819 32.9513 159.734 32.9089 159.65 32.8665C159.692 32.8665 159.628 32.8241 159.459 32.7392C159.332 32.612 159.247 32.5272 159.204 32.4848C159.204 32.4848 159.183 32.4848 159.141 32.4848C159.141 32.4423 159.056 32.3363 158.886 32.1667C158.801 32.0394 158.78 32.0182 158.823 32.103C158.907 32.1455 158.886 32.1455 158.759 32.103C158.759 32.103 158.738 32.103 158.695 32.103C158.695 32.103 158.695 32.1243 158.695 32.1667C158.611 32.2515 158.504 32.3575 158.377 32.4848C158.25 32.5696 158.08 32.7816 157.868 33.1209C157.571 33.6723 157.381 34.2237 157.296 34.775C157.211 35.284 157.126 35.7929 157.041 36.3019C157.041 36.5139 157.02 36.8108 156.978 37.1925C156.978 37.5742 156.978 37.9347 156.978 38.274V43.1726C156.978 43.5119 156.978 43.8512 156.978 44.1905C157.02 44.4874 157.062 44.8055 157.105 45.1448C157.232 46.0355 157.465 47.0746 157.805 48.2621L157.996 48.771C158.165 49.1952 158.335 49.5981 158.504 49.9798C158.674 50.3191 158.865 50.6584 159.077 50.9977ZM230.214 42.1547V44.1269C230.214 44.8055 230.193 45.5689 230.151 46.4172C230.151 47.2654 230.087 48.05 229.96 48.771C229.832 49.5345 229.684 50.2767 229.514 50.9977C229.345 51.6763 229.133 52.3549 228.878 53.0335C228.709 53.5 228.56 53.9241 228.433 54.3058C228.306 54.6451 228.136 54.9208 227.924 55.1329C227.924 55.1753 227.903 55.1965 227.86 55.1965C227.86 55.1965 227.86 55.2177 227.86 55.2601C227.563 55.8115 227.288 56.2568 227.033 56.5961C226.864 56.893 226.652 57.1899 226.397 57.4867C226.143 57.7412 225.888 57.9957 225.634 58.2502C225.422 58.4622 225.188 58.6743 224.934 58.8863C224.722 59.0984 224.51 59.3105 224.298 59.5225C224.298 59.5225 224.277 59.5225 224.234 59.5225C224.234 59.5225 224.234 59.5437 224.234 59.5861C224.022 59.7982 223.81 60.1163 223.598 60.5404C223.555 60.5828 223.534 60.6252 223.534 60.6677C223.534 60.7101 223.513 60.7525 223.471 60.7949L223.28 61.113C223.237 61.1554 223.195 61.219 223.153 61.3038C223.153 61.3463 223.131 61.3675 223.089 61.3675C222.919 61.6643 222.707 61.94 222.453 62.1945C222.241 62.3641 221.986 62.5762 221.689 62.8307C221.435 63.0427 221.159 63.1912 220.862 63.276H220.544C220.502 63.4457 220.438 63.6365 220.353 63.8486C220.311 64.0182 220.247 64.1879 220.163 64.3575C220.12 64.3999 220.078 64.4636 220.035 64.5484C220.035 64.6332 219.993 64.718 219.908 64.8028C219.866 64.8453 219.823 64.8877 219.781 64.9301C219.738 64.9725 219.717 65.0361 219.717 65.1209C219.675 65.5875 219.632 66.2873 219.59 67.2203C219.59 68.1534 219.569 69.1289 219.526 70.1468C219.526 71.2071 219.526 72.2038 219.526 73.1368C219.526 74.0699 219.505 74.7697 219.463 75.2362C219.463 75.2787 219.378 75.215 219.208 75.0454C219.166 74.9182 219.123 74.7909 219.081 74.6637C219.081 74.5364 219.039 74.4092 218.954 74.282L218.318 71.4192C218.106 70.783 217.999 69.9983 217.999 69.0653C217.999 68.1322 217.999 67.1991 217.999 66.2661C218.042 65.3754 217.978 64.612 217.809 63.9758C217.809 63.9758 217.787 63.9758 217.745 63.9758C217.745 64.0182 217.745 64.0606 217.745 64.103C217.745 64.1455 217.724 64.1455 217.681 64.103C217.639 64.0606 217.597 64.0394 217.554 64.0394C217.469 63.997 217.385 63.9334 217.3 63.8486C217.257 63.8062 217.194 63.7638 217.109 63.7213C217.066 63.6789 217.003 63.6365 216.918 63.5941C216.748 63.7638 216.621 63.9334 216.536 64.103C216.451 64.1879 216.409 64.2515 216.409 64.2939L216.027 64.7392C215.561 65.333 215.2 65.9904 214.946 66.7114L214.564 67.8565C214.394 68.3655 214.204 68.8956 213.992 69.447C213.779 70.0408 213.461 70.5709 213.037 71.0374C212.783 71.2919 212.677 71.3767 212.719 71.2919C212.804 71.2495 212.846 71.2071 212.846 71.1647L212.592 71.4192C212.422 71.504 212.337 71.5676 212.337 71.61C212.337 71.6948 212.231 71.7584 212.019 71.8009C211.977 71.8009 211.892 71.7797 211.765 71.7372C211.68 71.6948 211.595 71.6948 211.51 71.7372C211.468 71.7372 211.426 71.7372 211.383 71.7372C211.341 71.7797 211.277 71.8009 211.192 71.8009L210.747 72.119C210.662 72.1614 210.535 72.2462 210.365 72.3734C210.238 72.5007 210.111 72.5007 209.984 72.3734C209.941 72.331 209.899 72.2674 209.856 72.1826C209.856 72.0977 209.814 72.0341 209.729 71.9917C209.687 71.9493 209.644 71.9493 209.602 71.9917C209.559 72.0765 209.517 72.0977 209.475 72.0553C209.432 72.0129 209.39 71.9705 209.347 71.9281C209.305 71.8857 209.263 71.8433 209.22 71.8009C209.051 71.716 208.881 71.5888 208.711 71.4192C208.542 71.2495 208.372 71.1011 208.202 70.9738C208.033 70.8042 207.884 70.6769 207.757 70.5921C207.672 70.8042 207.63 71.0162 207.63 71.2283C207.63 71.4828 207.587 71.716 207.502 71.9281C207.46 72.0977 207.396 72.2462 207.312 72.3734C207.269 72.5007 207.248 72.6279 207.248 72.7551C207.206 73.2217 207.184 73.9003 207.184 74.7909C207.184 75.724 207.184 76.6995 207.184 77.7174C207.184 78.7353 207.163 79.6895 207.121 80.5802C207.078 81.5133 207.015 82.2131 206.93 82.6796C206.888 83.0613 206.845 83.1249 206.803 82.8704C206.803 82.616 206.781 82.1919 206.739 81.5981C206.739 81.0043 206.718 80.3893 206.675 79.7531C206.675 79.1594 206.675 78.6716 206.675 78.2899C206.633 77.6537 206.591 76.8479 206.548 75.8724C206.548 74.897 206.527 73.9215 206.485 72.946C206.485 72.0129 206.463 71.2283 206.421 70.5921C206.251 70.7194 206.103 70.8678 205.976 71.0374C205.721 71.3343 205.488 71.6312 205.276 71.9281C205.064 72.225 204.788 72.4795 204.449 72.6915C204.406 73.0308 204.364 73.3701 204.322 73.7094C204.279 74.0487 204.237 74.388 204.194 74.7273C204.152 75.3635 204.067 75.9785 203.94 76.5722C203.855 77.166 203.77 77.7598 203.685 78.3535C203.643 78.608 203.601 78.8413 203.558 79.0533C203.558 79.3078 203.516 79.5411 203.431 79.7531C203.388 79.9228 203.346 80.1773 203.304 80.5166C203.261 80.8983 203.219 81.0043 203.176 80.8347C203.092 79.8592 203.049 78.7989 203.049 77.6537C203.049 76.551 203.007 75.5331 202.922 74.6001C202.922 74.5577 202.88 74.5364 202.795 74.5364C202.71 74.5364 202.667 74.5577 202.667 74.6001C202.583 75.5331 202.54 76.5934 202.54 77.781C202.54 78.9685 202.498 80.05 202.413 81.0255C202.413 81.1952 202.371 81.1315 202.286 80.8347C202.243 80.5378 202.201 80.3257 202.159 80.1985C202.031 79.7319 201.925 79.2018 201.84 78.608C201.756 78.0142 201.671 77.5265 201.586 77.1448C201.501 76.3814 201.416 75.618 201.332 74.8545C201.289 74.1335 201.204 73.4125 201.077 72.6915L200.695 72.3098C200.568 72.0977 200.441 71.8857 200.314 71.6736C200.229 71.504 200.144 71.3343 200.059 71.1647C199.72 70.4013 199.402 69.6378 199.105 68.8744C198.85 68.111 198.554 67.3688 198.214 66.6478L197.26 64.6756C197.218 64.5908 197.196 64.5272 197.196 64.4848C197.196 64.4423 197.175 64.3999 197.133 64.3575C197.048 64.5272 197.005 64.718 197.005 64.9301C197.048 65.1846 197.005 65.4178 196.878 65.6299C196.836 65.6723 196.793 65.6087 196.751 65.439C196.709 65.3118 196.666 65.227 196.624 65.1846C196.581 64.9301 196.518 64.7392 196.433 64.612C196.433 64.6968 196.39 64.7816 196.306 64.8665C196.263 64.9513 196.178 65.0573 196.051 65.1846C195.924 65.3118 195.797 65.439 195.669 65.5663C195.585 65.6935 195.479 65.7995 195.351 65.8844C195.139 66.1812 194.97 66.5205 194.842 66.9023C194.758 67.3264 194.673 67.7081 194.588 68.0474C194.546 68.217 194.503 68.3867 194.461 68.5563C194.461 68.726 194.418 68.8956 194.333 69.0653C194.291 69.2349 194.249 69.4894 194.206 69.8287C194.164 70.168 194.121 70.2528 194.079 70.0832C193.612 69.6166 193.4 69.4258 193.443 69.5106C193.485 69.6378 193.612 69.8499 193.825 70.1468C194.037 70.4861 194.164 70.7618 194.206 70.9738C194.249 71.2283 194.037 71.2495 193.57 71.0374C193.146 70.9102 192.934 70.6133 192.934 70.1468C192.976 69.6803 193.061 69.1501 193.188 68.5563C193.358 67.9626 193.4 67.4536 193.316 67.0295C193.316 66.9447 193.273 66.8598 193.188 66.775C193.146 66.6902 193.125 66.6902 193.125 66.775C193.082 66.9871 193.061 67.3052 193.061 67.7293C193.061 68.1534 193.061 68.4927 193.061 68.7472C193.061 69.0441 192.998 69.0865 192.87 68.8744C192.658 68.4079 192.595 67.9201 192.679 67.4112C192.764 66.9023 192.764 66.4145 192.679 65.948C192.637 65.6935 192.531 65.4814 192.361 65.3118C192.276 65.2694 192.192 65.2058 192.107 65.1209C192.022 65.0361 191.937 64.9725 191.852 64.9301C191.81 64.9301 191.768 64.9513 191.725 64.9937C191.725 65.0785 191.704 65.1421 191.662 65.1846C191.534 65.1846 191.471 65.2058 191.471 65.2482C191.428 65.5875 191.428 66.0328 191.471 66.5842C191.555 67.1779 191.598 67.6657 191.598 68.0474C191.64 68.4291 191.513 68.5351 191.216 68.3655C190.792 68.0262 190.665 67.5172 190.834 66.8386C191.047 66.16 191.11 65.5451 191.025 64.9937C191.025 64.9089 191.004 64.8028 190.962 64.6756C190.919 64.5484 190.856 64.5272 190.771 64.612C190.686 64.7392 190.665 64.9301 190.707 65.1846C190.75 65.439 190.707 65.5451 190.58 65.5027C190.41 65.4178 190.347 65.2694 190.389 65.0573C190.474 64.8453 190.495 64.6544 190.453 64.4848L190.007 63.8486C189.838 63.7638 189.689 63.6789 189.562 63.5941C189.096 63.2548 188.862 62.7883 188.862 62.1945V50.2343C188.056 48.9195 187.463 47.6895 187.081 46.5444C186.742 45.3569 186.678 44.4026 186.89 43.6816C187.145 42.9606 187.802 42.6001 188.862 42.6001V22.8784C188.862 22.6239 188.841 22.3482 188.799 22.0514C188.799 21.7121 188.82 21.394 188.862 21.0971C188.862 20.673 188.968 20.3337 189.18 20.0792C189.35 19.8247 189.583 19.6339 189.88 19.5066C190.135 19.4218 190.347 19.3794 190.516 19.3794C190.728 19.337 190.941 19.337 191.153 19.3794C191.407 19.3794 191.64 19.3794 191.852 19.3794H207.757C208.436 19.3794 209.114 19.3794 209.793 19.3794C210.471 19.3794 211.15 19.4218 211.829 19.5066C216.494 19.8883 220.417 21.2879 223.598 23.7054C223.852 23.8751 224.043 24.0235 224.17 24.1508C224.298 24.2356 224.404 24.3204 224.489 24.4052C225.252 25.0414 225.994 25.826 226.715 26.7591C227.224 27.3105 227.648 27.9467 227.988 28.6677C228.793 30.1521 229.387 31.8274 229.769 33.6935C229.769 33.7359 229.769 33.7571 229.769 33.7571C229.811 33.7571 229.833 33.7783 229.833 33.8207C229.875 33.9904 229.917 34.1812 229.96 34.3933C230.002 34.563 230.023 34.7538 230.023 34.9659C230.151 35.5172 230.214 36.111 230.214 36.7472C230.299 38.7406 230.299 40.5431 230.214 42.1547ZM205.021 31.9758L204.64 31.5941C204.173 31.1276 203.982 30.9155 204.067 30.9579C204.152 31.0003 204.3 31.1488 204.512 31.4032C204.767 31.6577 204.852 31.8698 204.767 32.0394V50.7432C204.767 53.8393 204.406 56.1083 203.685 57.5504C203.007 58.9924 202.074 59.777 200.886 59.9042C199.741 60.0315 198.49 59.7134 197.133 58.95C195.776 58.1441 194.44 57.0626 193.125 55.7054C191.81 54.3482 190.622 52.9062 189.562 51.3794C188.544 49.8526 187.781 48.4105 187.272 47.0533C186.763 45.6537 186.636 44.551 186.89 43.7452C187.187 42.897 187.972 42.5152 189.244 42.6001C190.516 42.6425 192.404 43.3423 194.906 44.6995C197.451 46.0142 200.738 48.1561 204.767 51.1249L205.276 51.5066H207.948C208.499 51.5066 209.029 51.4854 209.538 51.443C210.09 51.3582 210.641 51.2309 211.192 51.0613C211.532 50.9341 211.85 50.7432 212.147 50.4887C212.189 50.4887 212.21 50.4887 212.21 50.4887C212.21 50.4463 212.231 50.4251 212.274 50.4251C212.359 50.3403 212.443 50.2343 212.528 50.107C212.613 49.9798 212.698 49.8526 212.783 49.7253C213.037 49.3012 213.228 48.8559 213.355 48.3893C213.525 47.8804 213.652 47.4138 213.737 46.9897C213.737 46.9473 213.737 46.9049 213.737 46.8625C213.779 46.7777 213.801 46.714 213.801 46.6716C213.886 46.4172 213.928 46.1627 213.928 45.9082C213.97 45.6113 214.013 45.3357 214.055 45.0812C214.055 44.6146 214.055 44.1057 214.055 43.5543C214.098 42.9606 214.119 42.3668 214.119 41.773V40.8188C214.119 40.3946 214.098 39.9917 214.055 39.61C214.055 39.1859 214.055 38.7618 214.055 38.3376C214.055 38.2104 214.034 37.9983 213.992 37.7015C213.992 37.3622 213.992 37.0441 213.992 36.7472C213.949 36.2806 213.864 35.8565 213.737 35.4748C213.652 35.0507 213.504 34.6478 213.292 34.2661C213.292 34.2661 213.249 34.1812 213.165 34.0116C213.122 33.9268 213.037 33.8207 212.91 33.6935C212.91 33.6511 212.868 33.5875 212.783 33.5026L212.401 33.1209C212.104 32.8665 211.807 32.7392 211.51 32.7392C211.214 32.7392 210.895 32.7816 210.556 32.8665C210.217 32.9089 209.856 32.9937 209.475 33.1209C209.093 33.2058 208.711 33.2694 208.33 33.3118C208.16 33.3542 207.969 33.3966 207.757 33.439C207.587 33.439 207.418 33.4178 207.248 33.3754C206.951 33.2906 206.654 33.1634 206.357 32.9937C206.06 32.7816 205.785 32.5908 205.53 32.4211C205.318 32.2091 205.149 32.0606 205.021 31.9758ZM275.334 55.2601C275.122 55.7691 274.91 56.1296 274.698 56.3416L273.935 57.4867C273.553 57.9957 273.129 58.4834 272.663 58.95L271.517 59.9679C271.475 60.7313 271.433 61.4947 271.39 62.2581C271.39 63.0215 271.369 63.8062 271.327 64.612C271.284 64.9937 271.284 65.3754 271.327 65.7571C271.369 66.1812 271.284 66.563 271.072 66.9023C270.902 67.1143 270.818 66.9659 270.818 66.4569C270.86 65.948 270.881 65.5451 270.881 65.2482C270.839 64.5272 270.796 63.785 270.754 63.0215C270.754 62.2157 270.712 61.4523 270.627 60.7313C270.33 61.0706 270.075 61.4947 269.863 62.0036C269.651 62.5126 269.482 62.9791 269.354 63.4032C269.1 64.1243 268.845 64.8665 268.591 65.6299C268.336 66.3933 268.061 67.1355 267.764 67.8565C267.637 68.1958 267.509 68.5351 267.382 68.8744C267.255 69.2561 267.085 69.5954 266.873 69.8923C266.831 69.9347 266.746 69.9983 266.619 70.0832C266.534 70.168 266.449 70.2316 266.364 70.274C266.067 70.3164 265.813 70.1256 265.601 69.7015C265.389 69.3197 265.24 69.0441 265.156 68.8744C265.113 68.7896 265.05 68.7048 264.965 68.6199C264.922 68.5351 264.901 68.4503 264.901 68.3655C264.859 67.7293 264.816 67.0719 264.774 66.3933C264.774 65.7571 264.731 65.0997 264.647 64.4211C264.477 64.6756 264.286 64.9301 264.074 65.1846C263.904 65.439 263.714 65.6935 263.501 65.948C263.417 66.0328 263.374 66.0752 263.374 66.0752C263.332 66.16 263.268 66.2237 263.183 66.2661C263.099 66.3509 263.014 66.4357 262.929 66.5205C262.887 66.6054 262.802 66.7538 262.674 66.9659C262.59 67.2203 262.505 67.39 262.42 67.4748C262.335 67.5596 262.25 67.5596 262.166 67.4748C262.038 67.39 261.932 67.1991 261.847 66.9023C261.805 66.6478 261.741 66.4569 261.657 66.3297C261.487 66.2025 261.338 66.0328 261.211 65.8207C261.084 65.6087 260.978 65.4178 260.893 65.2482C260.808 65.1209 260.723 64.9725 260.639 64.8028C260.596 65.0149 260.554 65.2482 260.511 65.5027C260.511 65.7995 260.469 66.054 260.384 66.2661C260.384 66.2661 260.299 66.2661 260.13 66.2661C260.002 66.2661 259.875 66.2449 259.748 66.2025C259.621 66.2025 259.494 66.2025 259.366 66.2025C259.069 66.16 258.857 66.1176 258.73 66.0752H258.348C258.136 66.2025 257.797 66.2025 257.331 66.0752C257.288 66.0328 257.224 65.9904 257.14 65.948C257.097 65.9056 257.076 65.9056 257.076 65.948C256.991 66.7114 256.949 67.4536 256.949 68.1746C256.949 68.938 256.906 69.6803 256.822 70.4013C256.779 70.5709 256.737 70.4861 256.694 70.1468C256.652 69.8499 256.61 69.6166 256.567 69.447C256.525 68.7684 256.503 68.0898 256.503 67.4112C256.546 66.7326 256.482 66.054 256.313 65.3754C256.27 65.1209 256.228 65.1421 256.185 65.439C256.185 65.7359 256.185 66.0964 256.185 66.5205C256.185 66.9447 256.143 67.2628 256.058 67.4748C256.016 67.6445 255.973 67.5596 255.931 67.2203C255.931 66.9235 255.91 66.6902 255.867 66.5205L255.486 64.5484H255.422C251.223 64.4636 247.576 63.7213 244.48 62.3217C241.384 60.9221 238.987 58.8651 237.291 56.1508C236.994 55.8115 236.739 55.4085 236.527 54.942C236.358 54.4755 236.209 54.0302 236.082 53.606L235.7 52.7154V52.6518C235.615 52.3973 235.531 52.1428 235.446 51.8883C235.361 51.6339 235.276 51.3794 235.191 51.1249C235.022 50.4887 234.894 49.6617 234.81 48.6438C234.725 47.6259 234.682 46.6292 234.682 45.6537C234.682 44.6359 234.682 43.8088 234.682 43.1726C234.682 42.3244 234.682 41.4761 234.682 40.6279C234.682 39.7372 234.704 38.889 234.746 38.0832V37.5742C234.746 36.9804 234.746 36.3655 234.746 35.7293C234.788 35.0931 234.873 34.4781 235 33.8844C235 33.7995 235 33.7359 235 33.6935C235.043 33.6511 235.064 33.6087 235.064 33.5663C235.446 31.2336 236.209 29.1554 237.354 27.3317C237.736 26.5683 238.245 25.8685 238.881 25.2323C242.698 20.9062 248.424 18.7432 256.058 18.7432H257.394C257.479 18.7432 257.543 18.7644 257.585 18.8068C257.797 18.8068 257.988 18.8068 258.158 18.8068C258.37 18.8068 258.56 18.828 258.73 18.8704C258.857 18.828 258.963 18.828 259.048 18.8704C259.175 18.8704 259.303 18.8704 259.43 18.8704L260.511 19.0613C260.936 19.1037 261.338 19.1673 261.72 19.2522C262.144 19.337 262.568 19.4218 262.993 19.5066C263.459 19.549 263.989 19.6763 264.583 19.8883C264.625 19.8883 264.647 19.9095 264.647 19.952C264.689 19.952 264.731 19.952 264.774 19.952C265.113 19.9944 265.431 20.0792 265.728 20.2064C266.067 20.2912 266.343 20.4185 266.555 20.5881C269.27 21.6909 271.602 23.3449 273.553 25.5504C274.147 26.1441 274.677 26.95 275.144 27.9679C275.907 29.4099 276.48 30.9155 276.861 32.4848C276.989 32.7816 277.052 33.1421 277.052 33.5663L277.243 34.775C277.285 35.2415 277.307 35.7081 277.307 36.1746C277.349 36.6412 277.37 37.1077 277.37 37.5742C277.413 38.2104 277.434 38.995 277.434 39.9281C277.434 40.8612 277.434 41.7942 277.434 42.7273C277.434 43.6604 277.434 44.445 277.434 45.0812C277.391 45.887 277.37 46.714 277.37 47.5623C277.37 48.3681 277.264 49.1527 277.052 49.9162C276.755 51.8671 276.183 53.6484 275.334 55.2601ZM253.386 50.9977C253.641 51.337 253.916 51.6339 254.213 51.8883C254.637 51.9732 255.146 52.058 255.74 52.1428H256.503C256.631 52.1004 256.758 52.0792 256.885 52.0792C257.055 52.0792 257.203 52.058 257.331 52.0156C258.136 51.8035 258.794 51.4218 259.303 50.8704C259.515 50.6584 259.706 50.4039 259.875 50.107C260.045 49.8101 260.172 49.5133 260.257 49.2164L260.448 48.5166C260.617 47.7956 260.702 47.0958 260.702 46.4172C260.745 45.6962 260.787 45.0812 260.83 44.5722V40.1826C260.83 39.6736 260.83 39.1647 260.83 38.6557C260.83 38.1044 260.808 37.5742 260.766 37.0653C260.766 36.7684 260.766 36.4927 260.766 36.2382C260.766 35.9413 260.745 35.6657 260.702 35.4112C260.66 35.3264 260.639 35.2415 260.639 35.1567C260.639 35.0295 260.617 34.9447 260.575 34.9023C260.575 34.775 260.533 34.5842 260.448 34.3297C260.321 33.8207 260.13 33.3966 259.875 33.0573C259.621 32.6756 259.324 32.3363 258.985 32.0394L258.921 31.9758C258.751 31.891 258.645 31.8486 258.603 31.8486C258.518 31.8062 258.37 31.785 258.158 31.785C258.115 31.785 258.073 31.8062 258.03 31.8486C257.988 31.891 257.903 31.9334 257.776 31.9758C257.733 31.9758 257.691 31.9758 257.649 31.9758C257.649 31.9334 257.606 31.9122 257.521 31.9122C257.352 31.9546 257.161 32.0606 256.949 32.2303C256.737 32.3999 256.567 32.5484 256.44 32.6756C256.355 32.718 256.228 32.7816 256.058 32.8665C255.889 32.9513 255.782 33.0361 255.74 33.1209C255.57 33.333 255.486 33.5239 255.486 33.6935C255.486 33.8632 255.316 33.9268 254.977 33.8844C254.68 33.8844 254.553 33.8419 254.595 33.7571C254.68 33.6723 254.616 33.4814 254.404 33.1846C254.362 33.0997 254.298 33.0361 254.213 32.9937C254.128 32.9513 254.044 32.9089 253.959 32.8665C254.001 32.8665 253.938 32.8241 253.768 32.7392C253.641 32.612 253.556 32.5272 253.513 32.4848C253.513 32.4848 253.492 32.4848 253.45 32.4848C253.45 32.4423 253.365 32.3363 253.195 32.1667C253.111 32.0394 253.089 32.0182 253.132 32.103C253.217 32.1455 253.195 32.1455 253.068 32.103C253.068 32.103 253.047 32.103 253.004 32.103C253.004 32.103 253.004 32.1243 253.004 32.1667C252.92 32.2515 252.814 32.3575 252.686 32.4848C252.559 32.5696 252.389 32.7816 252.177 33.1209C251.881 33.6723 251.69 34.2237 251.605 34.775C251.52 35.284 251.435 35.7929 251.35 36.3019C251.35 36.5139 251.329 36.8108 251.287 37.1925C251.287 37.5742 251.287 37.9347 251.287 38.274V43.1726C251.287 43.5119 251.287 43.8512 251.287 44.1905C251.329 44.4874 251.372 44.8055 251.414 45.1448C251.541 46.0355 251.775 47.0746 252.114 48.2621L252.305 48.771C252.474 49.1952 252.644 49.5981 252.814 49.9798C252.983 50.3191 253.174 50.6584 253.386 50.9977Z" fill="white"/>
</svg>
