<svg width="93" height="28" viewBox="0 0 93 28" fill="none" xmlns="http://www.w3.org/2000/svg">
<path d="M14 0C21.732 0 28 6.26801 28 14C28 21.732 21.732 28 14 28C6.26801 28 0 21.732 0 14C0 6.26801 6.26801 0 14 0ZM19.957 7.0293C19.789 7.0433 19.6276 7.0498 19.4736 7.0498H8.19727C8.09927 7.0358 7.99384 7.0358 7.88184 7.0498C7.81193 7.04984 7.73523 7.07137 7.65137 7.11328L7.62988 7.13379C7.61596 7.13383 7.60938 7.14131 7.60938 7.15527C7.60938 7.15527 7.60189 7.15527 7.58789 7.15527C7.51803 7.19725 7.46187 7.25991 7.41992 7.34375C7.40592 7.35775 7.39941 7.37923 7.39941 7.40723C7.39934 7.42119 7.39179 7.44197 7.37793 7.46973C7.34995 7.59564 7.33596 7.7498 7.33594 7.93164C7.34994 8.09964 7.35742 8.21906 7.35742 8.28906V10.998C7.35743 11.18 7.42739 11.3275 7.56738 11.4395C7.58138 11.4539 7.60216 11.4961 7.62988 11.5654C7.67175 11.6213 7.68586 11.6419 7.67188 11.6279C7.68587 11.6559 7.69336 11.6914 7.69336 11.7334C7.70731 11.7751 7.7214 11.7959 7.73535 11.7959C7.76312 11.7958 7.77734 11.7818 7.77734 11.7539C7.98681 11.9773 8.10545 12.1035 8.13379 12.1318L8.17578 12.1738C8.17578 12.1738 8.23175 12.2373 8.34375 12.3633L8.51172 12.5312C8.55364 12.5732 8.59577 12.6219 8.6377 12.6777C8.67965 12.7197 8.72172 12.7552 8.76367 12.7832C8.77764 12.9091 8.77763 13.0418 8.76367 13.1816V13.5596C8.77778 13.5037 8.8273 13.4615 8.91113 13.4336C9.00894 13.4197 9.07159 13.504 9.09961 13.6855C9.08563 13.5457 9.0716 13.4129 9.05762 13.2871C9.05762 13.1611 9.0651 13.0277 9.0791 12.8877H9.09961C9.11295 12.8744 9.12046 12.8678 9.12109 12.8672H9.1416C9.1556 12.8532 9.16309 12.8457 9.16309 12.8457C9.19102 12.8177 9.21913 12.7756 9.24707 12.7197C9.28899 12.6499 9.31707 12.6077 9.33105 12.5938C9.345 12.5798 9.3591 12.5657 9.37305 12.5518C9.37313 12.5381 9.37993 12.5314 9.39355 12.5312V12.5098C9.40747 12.5098 9.41495 12.5031 9.41504 12.4893C9.47099 12.6712 9.49902 12.8252 9.49902 12.9512C9.49902 12.9092 9.50553 12.8597 9.51953 12.8037C9.54749 12.7478 9.56901 12.6851 9.58301 12.6152C9.59701 12.5872 9.611 12.5518 9.625 12.5098C9.639 12.4679 9.66052 12.4398 9.68848 12.4258L9.81445 12.5518C9.84716 12.5736 9.86273 12.5829 9.86133 12.5791L9.96094 12.6992C10.0028 12.7411 10.045 12.7758 10.0869 12.8037L10.1504 13.0977C10.1644 13.1397 10.1709 13.2031 10.1709 13.2871C10.1709 13.357 10.1924 13.3851 10.2344 13.3711C10.3041 13.3431 10.3323 13.2869 10.3184 13.2031C10.3044 13.1192 10.3109 13.0491 10.3389 12.9932H10.4229C10.5343 12.8956 10.5903 12.8395 10.5908 12.8252C10.5908 12.8112 10.6123 12.7757 10.6543 12.7197C10.6822 12.6919 10.7104 12.6712 10.7383 12.6572L10.7803 12.6152C10.8362 12.5593 10.8848 12.5032 10.9268 12.4473C10.9687 12.3913 11.0042 12.3352 11.0322 12.2793L11.1582 12.0273C11.1862 11.9853 11.2067 11.9359 11.2207 11.8799L11.2627 11.7119C11.2627 11.684 11.2703 11.6634 11.2842 11.6494C11.3106 11.5966 11.3247 11.5685 11.3262 11.5654L11.4102 11.7334V20.7002C11.4101 20.7561 11.4027 20.8122 11.3887 20.8682V21.0361C11.3887 21.134 11.4028 21.2388 11.4307 21.3506C11.4585 21.4342 11.4868 21.4904 11.5146 21.5186C11.5846 21.6165 11.6761 21.6865 11.7881 21.7285C11.816 21.7285 11.8301 21.736 11.8301 21.75H11.8721C11.928 21.75 11.9766 21.7715 12.0186 21.8135C12.0465 21.8694 12.068 21.904 12.082 21.918V21.9395C12.0959 21.9534 12.1025 21.9675 12.1025 21.9814C12.1585 22.0794 12.2155 22.1774 12.2715 22.2754C12.3274 22.3732 12.3835 22.478 12.4395 22.5898C12.4405 22.5909 12.4471 22.5985 12.46 22.6113C12.4878 22.6253 12.5019 22.6459 12.502 22.6738C12.6279 22.8558 12.6914 23.0938 12.6914 23.3877C12.7054 23.6955 12.6914 24.0177 12.6494 24.3535C12.6074 24.7034 12.5719 25.0189 12.5439 25.2988C12.5299 25.5928 12.5654 25.8167 12.6494 25.9707C12.6494 25.9847 12.6634 26.0062 12.6914 26.0342C12.7192 26.0619 12.7334 26.0686 12.7334 26.0547C12.7474 25.9007 12.7539 25.6699 12.7539 25.3623C12.7679 25.0683 12.7754 24.753 12.7754 24.417C12.7894 24.0811 12.7959 23.7591 12.7959 23.4512C12.7959 23.1573 12.8034 22.9333 12.8174 22.7793C12.8453 22.7653 12.8734 22.7438 12.9014 22.7158L13.0059 22.6113C13.0199 22.5833 13.0413 22.5553 13.0693 22.5273C13.1392 22.4155 13.2019 22.3173 13.2578 22.2334C13.3277 22.1495 13.3979 22.0653 13.4678 21.9814L13.4893 21.96C13.4893 21.946 13.5033 21.9254 13.5312 21.8975C13.5592 21.8835 13.5798 21.8619 13.5938 21.834C13.6217 21.848 13.6712 21.8555 13.7412 21.8555H13.8037C13.8457 21.8975 13.8952 21.9535 13.9512 22.0234C14.021 22.1072 14.0697 22.1634 14.0977 22.1914C14.1396 22.2753 14.1611 22.352 14.1611 22.4219C14.1751 22.5198 14.1854 22.6179 14.1924 22.7158L14.2139 23.3037C14.2209 23.4017 14.2311 23.4997 14.2451 23.5977C14.2451 23.6117 14.2516 23.6116 14.2656 23.5977C14.2936 23.5977 14.3151 23.5911 14.3291 23.5771C14.3571 23.5211 14.3711 23.4577 14.3711 23.3877C14.3851 23.3179 14.3991 23.2551 14.4131 23.1992C14.4131 23.1992 14.4271 23.1218 14.4551 22.9678L14.5391 22.5059C14.567 22.352 14.5811 22.2679 14.5811 22.2539L14.665 22.1699L14.791 22.0859V22.0654C14.805 22.0654 14.8115 22.0579 14.8115 22.0439L14.833 22.0234C14.8749 22.0375 14.903 22.0655 14.917 22.1074C14.9449 22.1633 14.973 22.2055 15.001 22.2334C15.0988 22.3032 15.1765 22.2752 15.2324 22.1494C15.2884 22.0374 15.3369 21.946 15.3789 21.876C15.5049 21.82 15.5544 21.8135 15.5264 21.8555C15.5127 21.8974 15.5611 21.9396 15.6729 21.9814C15.7008 21.9814 15.7288 21.9599 15.7568 21.918C15.7848 21.89 15.8128 21.8835 15.8408 21.8975C15.8688 21.8975 15.8968 21.9115 15.9248 21.9395C15.9528 21.9813 15.9808 22.0095 16.0088 22.0234C16.0788 22.0374 16.1422 22.016 16.1982 21.96C16.2261 21.932 16.2543 21.8973 16.2822 21.8555C16.3101 21.8276 16.3307 21.7993 16.3447 21.7715C16.3587 21.7575 16.3727 21.7425 16.3867 21.7285C16.4007 21.7146 16.4147 21.7005 16.4287 21.6865C16.5127 21.6445 16.5827 21.5886 16.6387 21.5186C16.6526 21.5046 16.6602 21.4905 16.6602 21.4766C16.6741 21.4624 16.6949 21.4276 16.7227 21.3721C16.7227 21.3581 16.7301 21.3441 16.7441 21.3301V21.0781C16.7581 20.9801 16.7581 20.8747 16.7441 20.7627V11.6279L16.8701 11.7539L17.0166 11.9639C17.0586 12.0339 17.1081 12.1113 17.1641 12.1953C17.304 12.4192 17.4375 12.6433 17.5635 12.8672C17.7033 13.077 17.836 13.2938 17.9619 13.5176L18.1514 13.875L18.1719 13.8965L18.2354 14.0225C18.2633 14.0783 18.2914 14.1411 18.3193 14.2109C18.3613 14.2669 18.4033 14.3304 18.4453 14.4004L18.4873 14.4424C18.5711 14.5262 18.6133 14.5824 18.6133 14.6104C18.6272 14.6382 18.6413 14.6589 18.6553 14.6729C18.7112 14.7148 18.7393 14.7363 18.7393 14.7363C18.7673 14.7083 18.7812 14.6729 18.7812 14.6309C18.7952 14.589 18.8093 14.5543 18.8232 14.5264C18.9072 14.4704 18.9978 14.3722 19.0957 14.2324C19.2497 13.9945 19.3756 13.763 19.4736 13.5391C19.5856 13.3011 19.6911 13.0697 19.7891 12.8457C19.859 12.7198 19.9216 12.5937 19.9775 12.4678C20.0335 12.3418 20.0905 12.2158 20.1465 12.0898C20.2164 11.978 20.2725 11.8798 20.3145 11.7959C20.3564 11.6982 20.4051 11.6214 20.4609 11.5654C20.4749 11.5514 20.4889 11.53 20.5029 11.502C20.5309 11.474 20.5524 11.46 20.5664 11.46L20.6289 11.3975L20.7344 11.2715C20.7484 11.2575 20.7549 11.2425 20.7549 11.2285C20.755 11.2147 20.7625 11.2004 20.7764 11.1865C20.7624 11.2005 20.7624 11.1865 20.7764 11.1445C20.7902 11.0893 20.7968 11.0752 20.7969 11.1025C20.8248 10.9907 20.8323 10.8785 20.8184 10.7666C20.8044 10.6407 20.7969 10.5286 20.7969 10.4307V8.41504C20.8109 8.1631 20.8109 7.92512 20.7969 7.70117C20.7969 7.60317 20.7904 7.51173 20.7764 7.42773C20.7623 7.34392 20.7061 7.26714 20.6084 7.19727C20.5944 7.16933 20.5662 7.14779 20.5244 7.13379C20.4964 7.1058 20.4609 7.08529 20.4189 7.07129C20.2789 7.02929 20.125 7.0153 19.957 7.0293ZM8.76367 13.5596C8.70767 13.6996 8.68718 13.903 8.70117 14.1689C8.72917 14.4209 8.76366 14.6243 8.80566 14.7783C8.84758 14.932 8.85505 14.9459 8.82715 14.8203C8.78515 14.6243 8.75716 14.4209 8.74316 14.2109C8.74317 14.001 8.74967 13.7835 8.76367 13.5596ZM9.09961 13.875C9.09961 14.029 9.08561 14.1969 9.05762 14.3789C9.02962 14.5609 9.00163 14.7008 8.97363 14.7988C8.95963 14.8828 8.96712 14.8828 8.99512 14.7988C9.05107 14.6449 9.0791 14.4909 9.0791 14.3369C9.0931 14.1829 9.09961 14.029 9.09961 13.875Z" fill="#D90429"/>
<path d="M45.297 10.181C45.297 10.279 45.304 10.391 45.318 10.517C45.332 10.629 45.325 10.741 45.297 10.853C45.297 10.825 45.29 10.839 45.276 10.895C45.262 10.937 45.262 10.951 45.276 10.937C45.262 10.951 45.255 10.965 45.255 10.979C45.255 10.993 45.248 11.007 45.234 11.021L45.129 11.147L45.066 11.21C45.052 11.21 45.031 11.224 45.003 11.252C44.989 11.28 44.975 11.301 44.961 11.315C44.905 11.371 44.856 11.448 44.814 11.546C44.772 11.63 44.716 11.728 44.646 11.84C44.59 11.966 44.534 12.092 44.478 12.218C44.422 12.344 44.359 12.47 44.289 12.596C44.191 12.82 44.086 13.051 43.974 13.289C43.876 13.513 43.75 13.744 43.596 13.982C43.498 14.122 43.407 14.22 43.323 14.276C43.309 14.304 43.295 14.339 43.281 14.381C43.281 14.423 43.267 14.458 43.239 14.486C43.239 14.486 43.211 14.465 43.155 14.423C43.141 14.409 43.127 14.388 43.113 14.36C43.113 14.332 43.071 14.276 42.987 14.192L42.945 14.15C42.903 14.08 42.861 14.017 42.819 13.961C42.791 13.891 42.763 13.828 42.735 13.772L42.672 13.646L42.651 13.625L42.462 13.268C42.336 13.044 42.203 12.827 42.063 12.617C41.937 12.393 41.804 12.169 41.664 11.945C41.608 11.861 41.559 11.784 41.517 11.714L41.37 11.504C41.328 11.462 41.286 11.42 41.244 11.378V11.483V20.513C41.258 20.625 41.258 20.73 41.244 20.828C41.244 20.926 41.244 20.996 41.244 21.038V21.08C41.23 21.094 41.223 21.108 41.223 21.122C41.195 21.178 41.174 21.213 41.16 21.227C41.16 21.241 41.153 21.255 41.139 21.269C41.083 21.339 41.013 21.395 40.929 21.437C40.915 21.451 40.901 21.465 40.887 21.479C40.873 21.493 40.859 21.507 40.845 21.521C40.831 21.549 40.81 21.577 40.782 21.605C40.754 21.647 40.726 21.682 40.698 21.71C40.642 21.766 40.579 21.787 40.509 21.773C40.481 21.759 40.453 21.731 40.425 21.689C40.397 21.661 40.369 21.647 40.341 21.647C40.313 21.633 40.285 21.64 40.257 21.668C40.229 21.71 40.201 21.731 40.173 21.731C40.061 21.689 40.012 21.647 40.026 21.605C40.054 21.563 40.005 21.57 39.879 21.626C39.837 21.696 39.788 21.787 39.732 21.899C39.676 22.025 39.599 22.053 39.501 21.983C39.473 21.955 39.445 21.913 39.417 21.857C39.403 21.815 39.375 21.787 39.333 21.773L39.312 21.794C39.312 21.808 39.305 21.815 39.291 21.815C39.291 21.829 39.291 21.836 39.291 21.836L39.165 21.92L39.081 22.004C39.081 22.018 39.067 22.102 39.039 22.256C39.011 22.41 38.983 22.564 38.955 22.718C38.927 22.872 38.913 22.949 38.913 22.949C38.899 23.005 38.885 23.068 38.871 23.138C38.871 23.208 38.857 23.271 38.829 23.327C38.815 23.341 38.794 23.348 38.766 23.348C38.752 23.362 38.745 23.362 38.745 23.348C38.717 23.152 38.703 22.956 38.703 22.76C38.703 22.564 38.689 22.368 38.661 22.172C38.661 22.102 38.64 22.025 38.598 21.941C38.57 21.913 38.521 21.857 38.451 21.773C38.395 21.703 38.346 21.647 38.304 21.605H38.241C38.171 21.605 38.122 21.598 38.094 21.584C38.08 21.612 38.059 21.633 38.031 21.647C38.003 21.675 37.989 21.696 37.989 21.71L37.968 21.731C37.898 21.815 37.828 21.899 37.758 21.983C37.702 22.067 37.639 22.165 37.569 22.277C37.541 22.305 37.52 22.333 37.506 22.361C37.492 22.375 37.478 22.389 37.464 22.403C37.45 22.417 37.429 22.438 37.401 22.466C37.373 22.494 37.345 22.515 37.317 22.529C37.303 22.683 37.296 22.907 37.296 23.201C37.296 23.509 37.289 23.831 37.275 24.167C37.275 24.503 37.268 24.818 37.254 25.112C37.254 25.42 37.247 25.651 37.233 25.805C37.233 25.819 37.219 25.812 37.191 25.784C37.163 25.756 37.149 25.735 37.149 25.721C37.065 25.567 37.03 25.343 37.044 25.049C37.072 24.769 37.107 24.454 37.149 24.104C37.191 23.768 37.205 23.446 37.191 23.138C37.191 22.844 37.128 22.606 37.002 22.424C37.002 22.396 36.988 22.375 36.96 22.361C36.946 22.347 36.939 22.34 36.939 22.34C36.883 22.228 36.827 22.123 36.771 22.025C36.715 21.927 36.659 21.829 36.603 21.731C36.603 21.717 36.596 21.703 36.582 21.689C36.582 21.689 36.582 21.682 36.582 21.668C36.568 21.654 36.547 21.619 36.519 21.563C36.477 21.521 36.428 21.5 36.372 21.5C36.358 21.5 36.344 21.5 36.33 21.5C36.33 21.486 36.316 21.479 36.288 21.479C36.176 21.437 36.085 21.367 36.015 21.269C35.987 21.241 35.959 21.185 35.931 21.101C35.903 20.989 35.889 20.884 35.889 20.786C35.889 20.716 35.889 20.66 35.889 20.618C35.903 20.562 35.91 20.506 35.91 20.45V11.483L35.826 11.315C35.826 11.315 35.812 11.343 35.784 11.399C35.77 11.413 35.763 11.434 35.763 11.462C35.749 11.518 35.735 11.574 35.721 11.63C35.707 11.686 35.686 11.735 35.658 11.777L35.532 12.029C35.504 12.085 35.469 12.141 35.427 12.197C35.385 12.253 35.336 12.309 35.28 12.365C35.252 12.393 35.238 12.407 35.238 12.407C35.21 12.421 35.182 12.442 35.154 12.47C35.112 12.526 35.091 12.561 35.091 12.575C35.091 12.589 35.035 12.645 34.923 12.743C34.867 12.743 34.839 12.743 34.839 12.743C34.811 12.799 34.804 12.869 34.818 12.953C34.832 13.037 34.804 13.093 34.734 13.121C34.692 13.135 34.671 13.107 34.671 13.037C34.671 12.953 34.664 12.89 34.65 12.848L34.587 12.554C34.545 12.526 34.503 12.491 34.461 12.449C34.419 12.393 34.384 12.351 34.356 12.323C34.37 12.337 34.356 12.33 34.314 12.302C34.272 12.26 34.244 12.232 34.23 12.218L34.188 12.176C34.16 12.19 34.139 12.218 34.125 12.26C34.111 12.302 34.097 12.337 34.083 12.365C34.069 12.435 34.048 12.498 34.02 12.554C34.006 12.61 33.999 12.659 33.999 12.701C33.999 12.575 33.971 12.421 33.915 12.239C33.915 12.253 33.908 12.26 33.894 12.26C33.894 12.26 33.894 12.267 33.894 12.281C33.88 12.281 33.873 12.288 33.873 12.302C33.859 12.316 33.845 12.33 33.831 12.344C33.817 12.358 33.789 12.4 33.747 12.47C33.719 12.526 33.691 12.568 33.663 12.596C33.663 12.596 33.656 12.603 33.642 12.617C33.642 12.617 33.635 12.617 33.621 12.617C33.621 12.617 33.614 12.624 33.6 12.638C33.6 12.638 33.593 12.638 33.579 12.638C33.565 12.778 33.558 12.911 33.558 13.037C33.572 13.163 33.586 13.296 33.6 13.436C33.572 13.254 33.509 13.17 33.411 13.184C33.327 13.212 33.278 13.254 33.264 13.31C33.264 13.184 33.264 13.058 33.264 12.932C33.278 12.792 33.278 12.659 33.264 12.533C33.222 12.505 33.18 12.47 33.138 12.428C33.096 12.372 33.054 12.323 33.012 12.281L32.844 12.113C32.732 11.987 32.676 11.924 32.676 11.924C32.676 11.924 32.662 11.91 32.634 11.882C32.606 11.854 32.487 11.728 32.277 11.504C32.277 11.532 32.263 11.546 32.235 11.546C32.221 11.546 32.207 11.525 32.193 11.483C32.193 11.441 32.186 11.406 32.172 11.378C32.186 11.392 32.172 11.371 32.13 11.315C32.102 11.245 32.081 11.203 32.067 11.189C31.927 11.077 31.857 10.93 31.857 10.748V8.039C31.857 7.969 31.85 7.85 31.836 7.682C31.836 7.5 31.85 7.346 31.878 7.22C31.892 7.192 31.899 7.171 31.899 7.157C31.899 7.129 31.906 7.108 31.92 7.094C31.962 7.01 32.018 6.947 32.088 6.905C32.102 6.905 32.109 6.905 32.109 6.905C32.109 6.891 32.116 6.884 32.13 6.884L32.151 6.863C32.235 6.821 32.312 6.8 32.382 6.8C32.494 6.786 32.599 6.786 32.697 6.8C32.809 6.8 32.914 6.8 33.012 6.8H43.974C44.128 6.8 44.289 6.793 44.457 6.779C44.625 6.765 44.779 6.779 44.919 6.821C44.961 6.835 44.996 6.856 45.024 6.884C45.066 6.898 45.094 6.919 45.108 6.947C45.206 7.017 45.262 7.094 45.276 7.178C45.29 7.262 45.297 7.353 45.297 7.451C45.311 7.675 45.311 7.913 45.297 8.165C45.297 8.403 45.297 8.641 45.297 8.879V10.181ZM33.327 14.57C33.355 14.696 33.348 14.682 33.306 14.528C33.264 14.374 33.229 14.171 33.201 13.919C33.187 13.653 33.208 13.45 33.264 13.31C33.25 13.534 33.243 13.751 33.243 13.961C33.257 14.171 33.285 14.374 33.327 14.57ZM33.495 14.549C33.467 14.633 33.46 14.633 33.474 14.549C33.502 14.451 33.53 14.311 33.558 14.129C33.586 13.947 33.6 13.779 33.6 13.625C33.6 13.779 33.593 13.933 33.579 14.087C33.579 14.241 33.551 14.395 33.495 14.549ZM59.6608 18.644C59.5908 18.812 59.5208 18.931 59.4508 19.001L59.1988 19.379C59.0728 19.547 58.9328 19.708 58.7788 19.862L58.4008 20.198C58.3868 20.45 58.3728 20.702 58.3588 20.954C58.3588 21.206 58.3518 21.465 58.3378 21.731C58.3238 21.857 58.3238 21.983 58.3378 22.109C58.3518 22.249 58.3238 22.375 58.2538 22.487C58.1978 22.557 58.1698 22.508 58.1698 22.34C58.1838 22.172 58.1908 22.039 58.1908 21.941C58.1768 21.703 58.1628 21.458 58.1488 21.206C58.1488 20.94 58.1348 20.688 58.1068 20.45C58.0088 20.562 57.9248 20.702 57.8548 20.87C57.7848 21.038 57.7288 21.192 57.6868 21.332C57.6028 21.57 57.5188 21.815 57.4348 22.067C57.3508 22.319 57.2598 22.564 57.1618 22.802C57.1198 22.914 57.0778 23.026 57.0358 23.138C56.9938 23.264 56.9378 23.376 56.8678 23.474C56.8538 23.488 56.8258 23.509 56.7838 23.537C56.7558 23.565 56.7278 23.586 56.6998 23.6C56.6018 23.614 56.5178 23.551 56.4478 23.411C56.3778 23.285 56.3288 23.194 56.3008 23.138C56.2868 23.11 56.2658 23.082 56.2378 23.054C56.2238 23.026 56.2168 22.998 56.2168 22.97C56.2028 22.76 56.1888 22.543 56.1748 22.319C56.1748 22.109 56.1608 21.892 56.1328 21.668C56.0768 21.752 56.0138 21.836 55.9438 21.92C55.8878 22.004 55.8248 22.088 55.7548 22.172C55.7268 22.2 55.7128 22.214 55.7128 22.214C55.6988 22.242 55.6778 22.263 55.6498 22.277C55.6218 22.305 55.5938 22.333 55.5658 22.361C55.5518 22.389 55.5238 22.438 55.4818 22.508C55.4538 22.592 55.4258 22.648 55.3978 22.676C55.3698 22.704 55.3418 22.704 55.3138 22.676C55.2718 22.648 55.2368 22.585 55.2088 22.487C55.1948 22.403 55.1738 22.34 55.1458 22.298C55.0898 22.256 55.0408 22.2 54.9988 22.13C54.9568 22.06 54.9218 21.997 54.8938 21.941C54.8658 21.899 54.8378 21.85 54.8098 21.794C54.7958 21.864 54.7818 21.941 54.7678 22.025C54.7678 22.123 54.7538 22.207 54.7258 22.277C54.7258 22.277 54.6978 22.277 54.6418 22.277C54.5998 22.277 54.5578 22.27 54.5158 22.256C54.4738 22.256 54.4318 22.256 54.3898 22.256C54.2918 22.242 54.2218 22.228 54.1798 22.214H54.0538C53.9838 22.256 53.8718 22.256 53.7178 22.214C53.7038 22.2 53.6828 22.186 53.6548 22.172C53.6408 22.158 53.6338 22.158 53.6338 22.172C53.6058 22.424 53.5918 22.669 53.5918 22.907C53.5918 23.159 53.5778 23.404 53.5498 23.642C53.5358 23.698 53.5218 23.67 53.5078 23.558C53.4938 23.46 53.4798 23.383 53.4658 23.327C53.4518 23.103 53.4448 22.879 53.4448 22.655C53.4588 22.431 53.4378 22.207 53.3818 21.983C53.3678 21.899 53.3538 21.906 53.3398 22.004C53.3398 22.102 53.3398 22.221 53.3398 22.361C53.3398 22.501 53.3258 22.606 53.2978 22.676C53.2838 22.732 53.2698 22.704 53.2558 22.592C53.2558 22.494 53.2488 22.417 53.2348 22.361L53.1088 21.71H53.0878C51.7018 21.682 50.4978 21.437 49.4758 20.975C48.4538 20.513 47.6628 19.834 47.1028 18.938C47.0048 18.826 46.9208 18.693 46.8508 18.539C46.7948 18.385 46.7458 18.238 46.7038 18.098L46.5778 17.804V17.783C46.5498 17.699 46.5218 17.615 46.4938 17.531C46.4658 17.447 46.4378 17.363 46.4098 17.279C46.3538 17.069 46.3118 16.796 46.2838 16.46C46.2558 16.124 46.2418 15.795 46.2418 15.473C46.2418 15.137 46.2418 14.864 46.2418 14.654C46.2418 14.374 46.2418 14.094 46.2418 13.814C46.2418 13.52 46.2488 13.24 46.2628 12.974V12.806C46.2628 12.61 46.2628 12.407 46.2628 12.197C46.2768 11.987 46.3048 11.784 46.3468 11.588C46.3468 11.56 46.3468 11.539 46.3468 11.525C46.3608 11.511 46.3678 11.497 46.3678 11.483C46.4938 10.713 46.7458 10.027 47.1238 9.425C47.2498 9.173 47.4178 8.942 47.6278 8.732C48.8878 7.304 50.7778 6.59 53.2978 6.59H53.7388C53.7668 6.59 53.7878 6.597 53.8018 6.611C53.8718 6.611 53.9348 6.611 53.9908 6.611C54.0608 6.611 54.1238 6.618 54.1798 6.632C54.2218 6.618 54.2568 6.618 54.2848 6.632C54.3268 6.632 54.3688 6.632 54.4108 6.632L54.7678 6.695C54.9078 6.709 55.0408 6.73 55.1668 6.758C55.3068 6.786 55.4468 6.814 55.5868 6.842C55.7408 6.856 55.9158 6.898 56.1118 6.968C56.1258 6.968 56.1328 6.975 56.1328 6.989C56.1468 6.989 56.1608 6.989 56.1748 6.989C56.2868 7.003 56.3918 7.031 56.4898 7.073C56.6018 7.101 56.6928 7.143 56.7628 7.199C57.6588 7.563 58.4288 8.109 59.0728 8.837C59.2688 9.033 59.4438 9.299 59.5978 9.635C59.8498 10.111 60.0388 10.608 60.1648 11.126C60.2068 11.224 60.2278 11.343 60.2278 11.483L60.2908 11.882C60.3048 12.036 60.3118 12.19 60.3118 12.344C60.3258 12.498 60.3328 12.652 60.3328 12.806C60.3468 13.016 60.3538 13.275 60.3538 13.583C60.3538 13.891 60.3538 14.199 60.3538 14.507C60.3538 14.815 60.3538 15.074 60.3538 15.284C60.3398 15.55 60.3328 15.823 60.3328 16.103C60.3328 16.369 60.2978 16.628 60.2278 16.88C60.1298 17.524 59.9408 18.112 59.6608 18.644ZM52.4158 17.237C52.4998 17.349 52.5908 17.447 52.6888 17.531C52.8288 17.559 52.9968 17.587 53.1928 17.615H53.4448C53.4868 17.601 53.5288 17.594 53.5708 17.594C53.6268 17.594 53.6758 17.587 53.7178 17.573C53.9838 17.503 54.2008 17.377 54.3688 17.195C54.4388 17.125 54.5018 17.041 54.5578 16.943C54.6138 16.845 54.6558 16.747 54.6838 16.649L54.7468 16.418C54.8028 16.18 54.8308 15.949 54.8308 15.725C54.8448 15.487 54.8588 15.284 54.8728 15.116V13.667C54.8728 13.499 54.8728 13.331 54.8728 13.163C54.8728 12.981 54.8658 12.806 54.8518 12.638C54.8518 12.54 54.8518 12.449 54.8518 12.365C54.8518 12.267 54.8448 12.176 54.8308 12.092C54.8168 12.064 54.8098 12.036 54.8098 12.008C54.8098 11.966 54.8028 11.938 54.7888 11.924C54.7888 11.882 54.7748 11.819 54.7468 11.735C54.7048 11.567 54.6418 11.427 54.5578 11.315C54.4738 11.189 54.3758 11.077 54.2638 10.979L54.2428 10.958C54.1868 10.93 54.1518 10.916 54.1378 10.916C54.1098 10.902 54.0608 10.895 53.9908 10.895C53.9768 10.895 53.9628 10.902 53.9488 10.916C53.9348 10.93 53.9068 10.944 53.8648 10.958C53.8508 10.958 53.8368 10.958 53.8228 10.958C53.8228 10.944 53.8088 10.937 53.7808 10.937C53.7248 10.951 53.6618 10.986 53.5918 11.042C53.5218 11.098 53.4658 11.147 53.4238 11.189C53.3958 11.203 53.3538 11.224 53.2978 11.252C53.2418 11.28 53.2068 11.308 53.1928 11.336C53.1368 11.406 53.1088 11.469 53.1088 11.525C53.1088 11.581 53.0528 11.602 52.9408 11.588C52.8428 11.588 52.8008 11.574 52.8148 11.546C52.8428 11.518 52.8218 11.455 52.7518 11.357C52.7378 11.329 52.7168 11.308 52.6888 11.294C52.6608 11.28 52.6328 11.266 52.6048 11.252C52.6188 11.252 52.5978 11.238 52.5418 11.21C52.4998 11.168 52.4718 11.14 52.4578 11.126C52.4578 11.126 52.4508 11.126 52.4368 11.126C52.4368 11.112 52.4088 11.077 52.3528 11.021C52.3248 10.979 52.3178 10.972 52.3318 11C52.3598 11.014 52.3528 11.014 52.3108 11C52.3108 11 52.3038 11 52.2898 11C52.2898 11 52.2898 11.007 52.2898 11.021C52.2618 11.049 52.2268 11.084 52.1848 11.126C52.1428 11.154 52.0868 11.224 52.0168 11.336C51.9188 11.518 51.8558 11.7 51.8278 11.882C51.7998 12.05 51.7718 12.218 51.7438 12.386C51.7438 12.456 51.7368 12.554 51.7228 12.68C51.7228 12.806 51.7228 12.925 51.7228 13.037V14.654C51.7228 14.766 51.7228 14.878 51.7228 14.99C51.7368 15.088 51.7508 15.193 51.7648 15.305C51.8068 15.599 51.8838 15.942 51.9958 16.334L52.0588 16.502C52.1148 16.642 52.1708 16.775 52.2268 16.901C52.2828 17.013 52.3458 17.125 52.4158 17.237ZM75.8978 14.318V14.969C75.8978 15.193 75.8908 15.445 75.8768 15.725C75.8768 16.005 75.8558 16.264 75.8138 16.502C75.7718 16.754 75.7228 16.999 75.6668 17.237C75.6108 17.461 75.5408 17.685 75.4568 17.909C75.4008 18.063 75.3518 18.203 75.3098 18.329C75.2678 18.441 75.2118 18.532 75.1418 18.602C75.1418 18.616 75.1348 18.623 75.1208 18.623C75.1208 18.623 75.1208 18.63 75.1208 18.644C75.0228 18.826 74.9318 18.973 74.8478 19.085C74.7918 19.183 74.7218 19.281 74.6378 19.379C74.5538 19.463 74.4698 19.547 74.3858 19.631C74.3158 19.701 74.2388 19.771 74.1548 19.841C74.0848 19.911 74.0148 19.981 73.9448 20.051C73.9448 20.051 73.9378 20.051 73.9238 20.051C73.9238 20.051 73.9238 20.058 73.9238 20.072C73.8538 20.142 73.7838 20.247 73.7138 20.387C73.6998 20.401 73.6928 20.415 73.6928 20.429C73.6928 20.443 73.6858 20.457 73.6718 20.471L73.6088 20.576C73.5948 20.59 73.5808 20.611 73.5668 20.639C73.5668 20.653 73.5598 20.66 73.5458 20.66C73.4898 20.758 73.4198 20.849 73.3358 20.933C73.2658 20.989 73.1818 21.059 73.0838 21.143C72.9998 21.213 72.9088 21.262 72.8108 21.29H72.7058C72.6918 21.346 72.6708 21.409 72.6428 21.479C72.6288 21.535 72.6078 21.591 72.5798 21.647C72.5658 21.661 72.5518 21.682 72.5378 21.71C72.5378 21.738 72.5238 21.766 72.4958 21.794C72.4818 21.808 72.4678 21.822 72.4538 21.836C72.4398 21.85 72.4328 21.871 72.4328 21.899C72.4188 22.053 72.4048 22.284 72.3908 22.592C72.3908 22.9 72.3838 23.222 72.3698 23.558C72.3698 23.908 72.3698 24.237 72.3698 24.545C72.3698 24.853 72.3628 25.084 72.3488 25.238C72.3488 25.252 72.3208 25.231 72.2648 25.175C72.2508 25.133 72.2368 25.091 72.2228 25.049C72.2228 25.007 72.2088 24.965 72.1808 24.923L71.9708 23.978C71.9008 23.768 71.8658 23.509 71.8658 23.201C71.8658 22.893 71.8658 22.585 71.8658 22.277C71.8798 21.983 71.8588 21.731 71.8028 21.521C71.8028 21.521 71.7958 21.521 71.7818 21.521C71.7818 21.535 71.7818 21.549 71.7818 21.563C71.7818 21.577 71.7748 21.577 71.7608 21.563C71.7468 21.549 71.7328 21.542 71.7188 21.542C71.6908 21.528 71.6628 21.507 71.6348 21.479C71.6208 21.465 71.5998 21.451 71.5718 21.437C71.5578 21.423 71.5368 21.409 71.5088 21.395C71.4528 21.451 71.4108 21.507 71.3828 21.563C71.3548 21.591 71.3408 21.612 71.3408 21.626L71.2148 21.773C71.0608 21.969 70.9418 22.186 70.8578 22.424L70.7318 22.802C70.6758 22.97 70.6128 23.145 70.5428 23.327C70.4728 23.523 70.3678 23.698 70.2278 23.852C70.1438 23.936 70.1088 23.964 70.1228 23.936C70.1508 23.922 70.1648 23.908 70.1648 23.894L70.0808 23.978C70.0248 24.006 69.9968 24.027 69.9968 24.041C69.9968 24.069 69.9618 24.09 69.8918 24.104C69.8778 24.104 69.8498 24.097 69.8078 24.083C69.7798 24.069 69.7518 24.069 69.7238 24.083C69.7098 24.083 69.6958 24.083 69.6818 24.083C69.6678 24.097 69.6468 24.104 69.6188 24.104L69.4718 24.209C69.4438 24.223 69.4018 24.251 69.3458 24.293C69.3038 24.335 69.2618 24.335 69.2198 24.293C69.2058 24.279 69.1918 24.258 69.1778 24.23C69.1778 24.202 69.1638 24.181 69.1358 24.167C69.1218 24.153 69.1078 24.153 69.0938 24.167C69.0798 24.195 69.0658 24.202 69.0518 24.188C69.0378 24.174 69.0238 24.16 69.0098 24.146C68.9958 24.132 68.9818 24.118 68.9678 24.104C68.9118 24.076 68.8558 24.034 68.7998 23.978C68.7438 23.922 68.6878 23.873 68.6318 23.831C68.5758 23.775 68.5268 23.733 68.4848 23.705C68.4568 23.775 68.4428 23.845 68.4428 23.915C68.4428 23.999 68.4288 24.076 68.4008 24.146C68.3868 24.202 68.3658 24.251 68.3378 24.293C68.3238 24.335 68.3168 24.377 68.3168 24.419C68.3028 24.573 68.2958 24.797 68.2958 25.091C68.2958 25.399 68.2958 25.721 68.2958 26.057C68.2958 26.393 68.2888 26.708 68.2748 27.002C68.2608 27.31 68.2398 27.541 68.2118 27.695C68.1978 27.821 68.1838 27.842 68.1698 27.758C68.1698 27.674 68.1628 27.534 68.1488 27.338C68.1488 27.142 68.1418 26.939 68.1278 26.729C68.1278 26.533 68.1278 26.372 68.1278 26.246C68.1138 26.036 68.0998 25.77 68.0858 25.448C68.0858 25.126 68.0788 24.804 68.0648 24.482C68.0648 24.174 68.0578 23.915 68.0438 23.705C67.9878 23.747 67.9388 23.796 67.8968 23.852C67.8128 23.95 67.7358 24.048 67.6658 24.146C67.5958 24.244 67.5048 24.328 67.3928 24.398C67.3788 24.51 67.3648 24.622 67.3508 24.734C67.3368 24.846 67.3228 24.958 67.3088 25.07C67.2948 25.28 67.2668 25.483 67.2248 25.679C67.1968 25.875 67.1688 26.071 67.1408 26.267C67.1268 26.351 67.1128 26.428 67.0988 26.498C67.0988 26.582 67.0848 26.659 67.0568 26.729C67.0428 26.785 67.0288 26.869 67.0148 26.981C67.0008 27.107 66.9868 27.142 66.9728 27.086C66.9448 26.764 66.9308 26.414 66.9308 26.036C66.9308 25.672 66.9168 25.336 66.8888 25.028C66.8888 25.014 66.8748 25.007 66.8468 25.007C66.8188 25.007 66.8048 25.014 66.8048 25.028C66.7768 25.336 66.7628 25.686 66.7628 26.078C66.7628 26.47 66.7488 26.827 66.7208 27.149C66.7208 27.205 66.7068 27.184 66.6788 27.086C66.6648 26.988 66.6508 26.918 66.6368 26.876C66.5948 26.722 66.5598 26.547 66.5318 26.351C66.5038 26.155 66.4758 25.994 66.4478 25.868C66.4198 25.616 66.3918 25.364 66.3638 25.112C66.3498 24.874 66.3218 24.636 66.2798 24.398L66.1538 24.272C66.1118 24.202 66.0698 24.132 66.0278 24.062C65.9998 24.006 65.9718 23.95 65.9438 23.894C65.8318 23.642 65.7268 23.39 65.6288 23.138C65.5448 22.886 65.4468 22.641 65.3348 22.403L65.0198 21.752C65.0058 21.724 64.9988 21.703 64.9988 21.689C64.9988 21.675 64.9918 21.661 64.9778 21.647C64.9498 21.703 64.9358 21.766 64.9358 21.836C64.9498 21.92 64.9358 21.997 64.8938 22.067C64.8798 22.081 64.8658 22.06 64.8518 22.004C64.8378 21.962 64.8238 21.934 64.8098 21.92C64.7958 21.836 64.7748 21.773 64.7468 21.731C64.7468 21.759 64.7328 21.787 64.7048 21.815C64.6908 21.843 64.6628 21.878 64.6208 21.92C64.5788 21.962 64.5368 22.004 64.4948 22.046C64.4668 22.088 64.4318 22.123 64.3898 22.151C64.3198 22.249 64.2638 22.361 64.2218 22.487C64.1938 22.627 64.1658 22.753 64.1378 22.865C64.1238 22.921 64.1098 22.977 64.0958 23.033C64.0958 23.089 64.0818 23.145 64.0538 23.201C64.0398 23.257 64.0258 23.341 64.0118 23.453C63.9978 23.565 63.9838 23.593 63.9698 23.537C63.8158 23.383 63.7458 23.32 63.7598 23.348C63.7738 23.39 63.8158 23.46 63.8858 23.558C63.9558 23.67 63.9978 23.761 64.0118 23.831C64.0258 23.915 63.9558 23.922 63.8018 23.852C63.6618 23.81 63.5918 23.712 63.5918 23.558C63.6058 23.404 63.6338 23.229 63.6758 23.033C63.7318 22.837 63.7458 22.669 63.7178 22.529C63.7178 22.501 63.7038 22.473 63.6758 22.445C63.6618 22.417 63.6548 22.417 63.6548 22.445C63.6408 22.515 63.6338 22.62 63.6338 22.76C63.6338 22.9 63.6338 23.012 63.6338 23.096C63.6338 23.194 63.6128 23.208 63.5708 23.138C63.5008 22.984 63.4798 22.823 63.5078 22.655C63.5358 22.487 63.5358 22.326 63.5078 22.172C63.4938 22.088 63.4588 22.018 63.4028 21.962C63.3748 21.948 63.3468 21.927 63.3188 21.899C63.2908 21.871 63.2628 21.85 63.2348 21.836C63.2208 21.836 63.2068 21.843 63.1928 21.857C63.1928 21.885 63.1858 21.906 63.1718 21.92C63.1298 21.92 63.1088 21.927 63.1088 21.941C63.0948 22.053 63.0948 22.2 63.1088 22.382C63.1368 22.578 63.1508 22.739 63.1508 22.865C63.1648 22.991 63.1228 23.026 63.0248 22.97C62.8848 22.858 62.8428 22.69 62.8988 22.466C62.9688 22.242 62.9898 22.039 62.9618 21.857C62.9618 21.829 62.9548 21.794 62.9408 21.752C62.9268 21.71 62.9058 21.703 62.8778 21.731C62.8498 21.773 62.8428 21.836 62.8568 21.92C62.8708 22.004 62.8568 22.039 62.8148 22.025C62.7588 21.997 62.7378 21.948 62.7518 21.878C62.7798 21.808 62.7868 21.745 62.7728 21.689L62.6258 21.479C62.5698 21.451 62.5208 21.423 62.4788 21.395C62.3248 21.283 62.2478 21.129 62.2478 20.933V16.985C61.9818 16.551 61.7858 16.145 61.6598 15.767C61.5478 15.375 61.5268 15.06 61.5968 14.822C61.6808 14.584 61.8978 14.465 62.2478 14.465V7.955C62.2478 7.871 62.2408 7.78 62.2268 7.682C62.2268 7.57 62.2338 7.465 62.2478 7.367C62.2478 7.227 62.2828 7.115 62.3528 7.031C62.4088 6.947 62.4858 6.884 62.5838 6.842C62.6678 6.814 62.7378 6.8 62.7938 6.8C62.8638 6.786 62.9338 6.786 63.0038 6.8C63.0878 6.8 63.1648 6.8 63.2348 6.8H68.4848C68.7088 6.8 68.9328 6.8 69.1568 6.8C69.3808 6.8 69.6048 6.814 69.8288 6.842C71.3688 6.968 72.6638 7.43 73.7138 8.228C73.7978 8.284 73.8608 8.333 73.9028 8.375C73.9448 8.403 73.9798 8.431 74.0078 8.459C74.2598 8.669 74.5048 8.928 74.7428 9.236C74.9108 9.418 75.0508 9.628 75.1628 9.866C75.4288 10.356 75.6248 10.909 75.7508 11.525C75.7508 11.539 75.7508 11.546 75.7508 11.546C75.7648 11.546 75.7718 11.553 75.7718 11.567C75.7858 11.623 75.7998 11.686 75.8138 11.756C75.8278 11.812 75.8348 11.875 75.8348 11.945C75.8768 12.127 75.8978 12.323 75.8978 12.533C75.9258 13.191 75.9258 13.786 75.8978 14.318ZM67.5818 10.958L67.4558 10.832C67.3018 10.678 67.2388 10.608 67.2668 10.622C67.2948 10.636 67.3438 10.685 67.4138 10.769C67.4978 10.853 67.5258 10.923 67.4978 10.979V17.153C67.4978 18.175 67.3788 18.924 67.1408 19.4C66.9168 19.876 66.6088 20.135 66.2168 20.177C65.8388 20.219 65.4258 20.114 64.9778 19.862C64.5298 19.596 64.0888 19.239 63.6548 18.791C63.2208 18.343 62.8288 17.867 62.4788 17.363C62.1428 16.859 61.8908 16.383 61.7228 15.935C61.5548 15.473 61.5128 15.109 61.5968 14.843C61.6948 14.563 61.9538 14.437 62.3738 14.465C62.7938 14.479 63.4168 14.71 64.2428 15.158C65.0828 15.592 66.1678 16.299 67.4978 17.279L67.6658 17.405H68.5478C68.7298 17.405 68.9048 17.398 69.0728 17.384C69.2548 17.356 69.4368 17.314 69.6188 17.258C69.7308 17.216 69.8358 17.153 69.9338 17.069C69.9478 17.069 69.9548 17.069 69.9548 17.069C69.9548 17.055 69.9618 17.048 69.9758 17.048C70.0038 17.02 70.0318 16.985 70.0598 16.943C70.0878 16.901 70.1158 16.859 70.1438 16.817C70.2278 16.677 70.2908 16.53 70.3328 16.376C70.3888 16.208 70.4308 16.054 70.4588 15.914C70.4588 15.9 70.4588 15.886 70.4588 15.872C70.4728 15.844 70.4798 15.823 70.4798 15.809C70.5078 15.725 70.5218 15.641 70.5218 15.557C70.5358 15.459 70.5498 15.368 70.5638 15.284C70.5638 15.13 70.5638 14.962 70.5638 14.78C70.5778 14.584 70.5848 14.388 70.5848 14.192V13.877C70.5848 13.737 70.5778 13.604 70.5638 13.478C70.5638 13.338 70.5638 13.198 70.5638 13.058C70.5638 13.016 70.5568 12.946 70.5428 12.848C70.5428 12.736 70.5428 12.631 70.5428 12.533C70.5288 12.379 70.5008 12.239 70.4588 12.113C70.4308 11.973 70.3818 11.84 70.3118 11.714C70.3118 11.714 70.2978 11.686 70.2698 11.63C70.2558 11.602 70.2278 11.567 70.1858 11.525C70.1858 11.511 70.1718 11.49 70.1438 11.462L70.0178 11.336C69.9198 11.252 69.8218 11.21 69.7238 11.21C69.6258 11.21 69.5208 11.224 69.4088 11.252C69.2968 11.266 69.1778 11.294 69.0518 11.336C68.9258 11.364 68.7998 11.385 68.6738 11.399C68.6178 11.413 68.5548 11.427 68.4848 11.441C68.4288 11.441 68.3728 11.434 68.3168 11.42C68.2188 11.392 68.1208 11.35 68.0228 11.294C67.9248 11.224 67.8338 11.161 67.7498 11.105C67.6798 11.035 67.6238 10.986 67.5818 10.958ZM90.7917 18.644C90.7217 18.812 90.6517 18.931 90.5817 19.001L90.3297 19.379C90.2037 19.547 90.0637 19.708 89.9097 19.862L89.5317 20.198C89.5177 20.45 89.5037 20.702 89.4897 20.954C89.4897 21.206 89.4827 21.465 89.4687 21.731C89.4547 21.857 89.4547 21.983 89.4687 22.109C89.4827 22.249 89.4547 22.375 89.3847 22.487C89.3287 22.557 89.3007 22.508 89.3007 22.34C89.3147 22.172 89.3217 22.039 89.3217 21.941C89.3077 21.703 89.2937 21.458 89.2797 21.206C89.2797 20.94 89.2657 20.688 89.2377 20.45C89.1397 20.562 89.0557 20.702 88.9857 20.87C88.9157 21.038 88.8597 21.192 88.8177 21.332C88.7337 21.57 88.6497 21.815 88.5657 22.067C88.4817 22.319 88.3907 22.564 88.2927 22.802C88.2507 22.914 88.2087 23.026 88.1667 23.138C88.1247 23.264 88.0687 23.376 87.9987 23.474C87.9847 23.488 87.9567 23.509 87.9147 23.537C87.8867 23.565 87.8587 23.586 87.8307 23.6C87.7327 23.614 87.6487 23.551 87.5787 23.411C87.5087 23.285 87.4597 23.194 87.4317 23.138C87.4177 23.11 87.3967 23.082 87.3687 23.054C87.3547 23.026 87.3477 22.998 87.3477 22.97C87.3337 22.76 87.3197 22.543 87.3057 22.319C87.3057 22.109 87.2917 21.892 87.2637 21.668C87.2077 21.752 87.1447 21.836 87.0747 21.92C87.0187 22.004 86.9557 22.088 86.8857 22.172C86.8577 22.2 86.8437 22.214 86.8437 22.214C86.8297 22.242 86.8087 22.263 86.7807 22.277C86.7527 22.305 86.7247 22.333 86.6967 22.361C86.6827 22.389 86.6547 22.438 86.6127 22.508C86.5847 22.592 86.5567 22.648 86.5287 22.676C86.5007 22.704 86.4727 22.704 86.4447 22.676C86.4027 22.648 86.3677 22.585 86.3397 22.487C86.3257 22.403 86.3047 22.34 86.2767 22.298C86.2207 22.256 86.1717 22.2 86.1297 22.13C86.0877 22.06 86.0527 21.997 86.0247 21.941C85.9967 21.899 85.9687 21.85 85.9407 21.794C85.9267 21.864 85.9127 21.941 85.8987 22.025C85.8987 22.123 85.8847 22.207 85.8567 22.277C85.8567 22.277 85.8287 22.277 85.7727 22.277C85.7307 22.277 85.6887 22.27 85.6467 22.256C85.6047 22.256 85.5627 22.256 85.5207 22.256C85.4227 22.242 85.3527 22.228 85.3107 22.214H85.1847C85.1147 22.256 85.0027 22.256 84.8487 22.214C84.8347 22.2 84.8137 22.186 84.7857 22.172C84.7717 22.158 84.7647 22.158 84.7647 22.172C84.7367 22.424 84.7227 22.669 84.7227 22.907C84.7227 23.159 84.7087 23.404 84.6807 23.642C84.6667 23.698 84.6527 23.67 84.6387 23.558C84.6247 23.46 84.6107 23.383 84.5967 23.327C84.5827 23.103 84.5757 22.879 84.5757 22.655C84.5897 22.431 84.5687 22.207 84.5127 21.983C84.4987 21.899 84.4847 21.906 84.4707 22.004C84.4707 22.102 84.4707 22.221 84.4707 22.361C84.4707 22.501 84.4567 22.606 84.4287 22.676C84.4147 22.732 84.4007 22.704 84.3867 22.592C84.3867 22.494 84.3797 22.417 84.3657 22.361L84.2397 21.71H84.2187C82.8327 21.682 81.6287 21.437 80.6067 20.975C79.5847 20.513 78.7937 19.834 78.2337 18.938C78.1357 18.826 78.0517 18.693 77.9817 18.539C77.9257 18.385 77.8767 18.238 77.8347 18.098L77.7087 17.804V17.783C77.6807 17.699 77.6527 17.615 77.6247 17.531C77.5967 17.447 77.5687 17.363 77.5407 17.279C77.4847 17.069 77.4427 16.796 77.4147 16.46C77.3867 16.124 77.3727 15.795 77.3727 15.473C77.3727 15.137 77.3727 14.864 77.3727 14.654C77.3727 14.374 77.3727 14.094 77.3727 13.814C77.3727 13.52 77.3797 13.24 77.3937 12.974V12.806C77.3937 12.61 77.3937 12.407 77.3937 12.197C77.4077 11.987 77.4357 11.784 77.4777 11.588C77.4777 11.56 77.4777 11.539 77.4777 11.525C77.4917 11.511 77.4987 11.497 77.4987 11.483C77.6247 10.713 77.8767 10.027 78.2547 9.425C78.3807 9.173 78.5487 8.942 78.7587 8.732C80.0187 7.304 81.9087 6.59 84.4287 6.59H84.8697C84.8977 6.59 84.9187 6.597 84.9327 6.611C85.0027 6.611 85.0657 6.611 85.1217 6.611C85.1917 6.611 85.2547 6.618 85.3107 6.632C85.3527 6.618 85.3877 6.618 85.4157 6.632C85.4577 6.632 85.4997 6.632 85.5417 6.632L85.8987 6.695C86.0387 6.709 86.1717 6.73 86.2977 6.758C86.4377 6.786 86.5777 6.814 86.7177 6.842C86.8717 6.856 87.0467 6.898 87.2427 6.968C87.2567 6.968 87.2637 6.975 87.2637 6.989C87.2777 6.989 87.2917 6.989 87.3057 6.989C87.4177 7.003 87.5227 7.031 87.6207 7.073C87.7327 7.101 87.8237 7.143 87.8937 7.199C88.7897 7.563 89.5597 8.109 90.2037 8.837C90.3997 9.033 90.5747 9.299 90.7287 9.635C90.9807 10.111 91.1697 10.608 91.2957 11.126C91.3377 11.224 91.3587 11.343 91.3587 11.483L91.4217 11.882C91.4357 12.036 91.4427 12.19 91.4427 12.344C91.4567 12.498 91.4637 12.652 91.4637 12.806C91.4777 13.016 91.4847 13.275 91.4847 13.583C91.4847 13.891 91.4847 14.199 91.4847 14.507C91.4847 14.815 91.4847 15.074 91.4847 15.284C91.4707 15.55 91.4637 15.823 91.4637 16.103C91.4637 16.369 91.4287 16.628 91.3587 16.88C91.2607 17.524 91.0717 18.112 90.7917 18.644ZM83.5467 17.237C83.6307 17.349 83.7217 17.447 83.8197 17.531C83.9597 17.559 84.1277 17.587 84.3237 17.615H84.5757C84.6177 17.601 84.6597 17.594 84.7017 17.594C84.7577 17.594 84.8067 17.587 84.8487 17.573C85.1147 17.503 85.3317 17.377 85.4997 17.195C85.5697 17.125 85.6327 17.041 85.6887 16.943C85.7447 16.845 85.7867 16.747 85.8147 16.649L85.8777 16.418C85.9337 16.18 85.9617 15.949 85.9617 15.725C85.9757 15.487 85.9897 15.284 86.0037 15.116V13.667C86.0037 13.499 86.0037 13.331 86.0037 13.163C86.0037 12.981 85.9967 12.806 85.9827 12.638C85.9827 12.54 85.9827 12.449 85.9827 12.365C85.9827 12.267 85.9757 12.176 85.9617 12.092C85.9477 12.064 85.9407 12.036 85.9407 12.008C85.9407 11.966 85.9337 11.938 85.9197 11.924C85.9197 11.882 85.9057 11.819 85.8777 11.735C85.8357 11.567 85.7727 11.427 85.6887 11.315C85.6047 11.189 85.5067 11.077 85.3947 10.979L85.3737 10.958C85.3177 10.93 85.2827 10.916 85.2687 10.916C85.2407 10.902 85.1917 10.895 85.1217 10.895C85.1077 10.895 85.0937 10.902 85.0797 10.916C85.0657 10.93 85.0377 10.944 84.9957 10.958C84.9817 10.958 84.9677 10.958 84.9537 10.958C84.9537 10.944 84.9397 10.937 84.9117 10.937C84.8557 10.951 84.7927 10.986 84.7227 11.042C84.6527 11.098 84.5967 11.147 84.5547 11.189C84.5267 11.203 84.4847 11.224 84.4287 11.252C84.3727 11.28 84.3377 11.308 84.3237 11.336C84.2677 11.406 84.2397 11.469 84.2397 11.525C84.2397 11.581 84.1837 11.602 84.0717 11.588C83.9737 11.588 83.9317 11.574 83.9457 11.546C83.9737 11.518 83.9527 11.455 83.8827 11.357C83.8687 11.329 83.8477 11.308 83.8197 11.294C83.7917 11.28 83.7637 11.266 83.7357 11.252C83.7497 11.252 83.7287 11.238 83.6727 11.21C83.6307 11.168 83.6027 11.14 83.5887 11.126C83.5887 11.126 83.5817 11.126 83.5677 11.126C83.5677 11.112 83.5397 11.077 83.4837 11.021C83.4557 10.979 83.4487 10.972 83.4627 11C83.4907 11.014 83.4837 11.014 83.4417 11C83.4417 11 83.4347 11 83.4207 11C83.4207 11 83.4207 11.007 83.4207 11.021C83.3927 11.049 83.3577 11.084 83.3157 11.126C83.2737 11.154 83.2177 11.224 83.1477 11.336C83.0497 11.518 82.9867 11.7 82.9587 11.882C82.9307 12.05 82.9027 12.218 82.8747 12.386C82.8747 12.456 82.8677 12.554 82.8537 12.68C82.8537 12.806 82.8537 12.925 82.8537 13.037V14.654C82.8537 14.766 82.8537 14.878 82.8537 14.99C82.8677 15.088 82.8817 15.193 82.8957 15.305C82.9377 15.599 83.0147 15.942 83.1267 16.334L83.1897 16.502C83.2457 16.642 83.3017 16.775 83.3577 16.901C83.4137 17.013 83.4767 17.125 83.5467 17.237Z" fill="#D90429"/>
</svg>
